<svg width="1920" height="4369" viewBox="0 0 1920 4369" fill="none" xmlns="http://www.w3.org/2000/svg">
<g clip-path="url(#clip0_33_2)">
<rect width="1920" height="4369" fill="url(#paint0_linear_33_2)"/>
<g clip-path="url(#clip1_33_2)">
<mask id="mask0_33_2" style="mask-type:luminance" maskUnits="userSpaceOnUse" x="-443" y="-501" width="2714" height="2715">
<path d="M-443 -500H2271V2214H-443V-500Z" fill="white"/>
</mask>
<g mask="url(#mask0_33_2)">
<path d="M182.464 -220.616C208.935 -214.691 235.22 -206.16 259.46 -195.123C286.465 -182.869 311.954 -167.065 333.63 -148.402C358.92 -126.685 380.071 -100.092 393.446 -70.1795C401.127 -53.0406 406.333 -34.7528 408.626 -15.6462C411.155 5.41442 410.124 27.4339 404.935 49.7747C399.277 74.4449 388.588 99.3143 372.634 123.464C355.143 149.885 331.617 174.976 302.17 197.253C270.502 221.281 233.189 241.356 191.479 256.387C147.96 272.065 101.221 281.672 53.3321 284.563C4.96862 287.702 -42.3092 283.314 -86.2806 272.255C-128.759 261.544 -166.597 244.97 -198.473 223.869C-228.318 204.124 -252.12 180.942 -269.512 155.594C-285.443 132.335 -295.706 107.687 -300.411 82.5146" stroke="#C9EBDA" stroke-opacity="0.5" stroke-width="2.85875"/>
<path d="M119.663 -226.7C145.776 -224.502 171.844 -219.865 196.487 -213.039C222.989 -205.693 248.989 -195.489 272.257 -182.502C298.475 -167.928 322.227 -149.627 341.225 -128.087C363.502 -102.824 379.406 -72.5672 385.182 -39.5288C388.706 -20.5036 388.724 -0.632596 385.01 19.6274C380.908 41.9003 372.282 64.4761 358.884 86.5636C344.228 110.691 324.095 133.878 298.529 154.843C271.023 177.388 237.943 196.815 200.146 211.489C119.934 243.342 28.2009 252.905 -57.1273 236.091C-98.0635 228.185 -135.064 214.524 -166.755 196.404C-196.595 179.306 -220.886 158.711 -239.078 135.768" stroke="#C9EBDA" stroke-opacity="0.5" stroke-width="2.85875"/>
<path d="M187.816 -211.104C213.472 -204.161 238.49 -194.363 260.804 -181.996C285.791 -168.15 308.249 -150.69 325.877 -130.277C346.698 -106.425 360.557 -78.1948 365.071 -47.4317C367.636 -29.9083 367.161 -11.5843 363.172 7.0202C358.816 27.3616 350.271 47.8931 337.072 67.746C307.697 113.468 256.321 152.73 188.974 178.54C115.677 206.558 32.4526 215.265 -45.2356 200.687C-119.432 187.555 -177.837 155.11 -214.444 112.848C-230.742 94.0175 -242.213 73.7348 -248.867 52.819C-254.987 33.64 -257.032 14.1264 -255.168 -5.16566" stroke="#C9EBDA" stroke-opacity="0.5" stroke-width="2.85875"/>
<path d="M144.165 -216.436C172.553 -211.827 200.684 -203.902 225.865 -192.938C253.892 -180.774 279.575 -164.223 299.659 -144.334C323.298 -121.053 339.976 -92.2391 345.069 -60.6346C348.063 -42.4508 347.267 -23.3758 342.282 -4.04308C336.768 17.2121 326.238 38.5893 310.275 58.9488C293.105 81.4615 269.651 101.961 240.829 119.417C210.097 138.03 174.259 152.641 135.141 162.198C53.2369 182.196 -33.0457 178.501 -103.293 149.904C-135.924 136.999 -163.186 119.697 -184.279 99.4914C-203.792 80.7738 -217.571 60.0027 -225.527 38.2952C-232.873 18.5464 -235.18 -1.75883 -233.176 -21.6344C-231.353 -39.6825 -225.966 -57.3054 -217.607 -73.9467" stroke="#C9EBDA" stroke-opacity="0.5" stroke-width="2.85875"/>
<path d="M-212.658 -33.3502C-216.105 1.35737 -203.956 36.5081 -175.671 67.2215C-143.144 102.504 -91.7407 129.399 -27.2154 139.817C39.9426 151.491 111.859 143.765 174.874 120.231C233.116 98.4372 277.73 65.3399 302.812 26.7513C324.632 -5.96144 331.603 -40.3026 326.061 -71.7307C321.362 -98.4003 307.579 -122.894 287.898 -143.226C270.827 -160.949 248.997 -175.953 224.811 -187.415C202.905 -197.828 178.307 -205.698 153.184 -210.755" stroke="#C9EBDA" stroke-opacity="0.5" stroke-width="2.85875"/>
<path d="M-191.055 -58.0072C-198.184 -24.3898 -189.68 10.9918 -163.291 41.8319C-132.749 77.6251 -80.853 104.453 -15.8165 114.201C51.9657 124.559 124.366 114.933 184.848 88.6936C239.973 64.8194 278.775 29.5962 297.139 -8.55809C312.876 -40.7687 313.292 -73.5763 301.731 -102.259C291.992 -126.567 273.392 -148.153 250.106 -165.106C229.629 -180.047 204.542 -191.898 177.959 -199.995C153.334 -207.522 126.261 -212.185 99.3249 -213.746" stroke="#C9EBDA" stroke-opacity="0.5" stroke-width="2.85875"/>
<path d="M116.736 -199.646C139.113 -196.543 161.02 -190.681 180.171 -182.453C200.848 -173.6 219.027 -161.7 232.606 -147.424C247.899 -131.412 257.539 -112.431 259.176 -92.072C261.135 -68.8673 252.676 -44.0161 233.099 -21.3633C211.152 4.16643 176.435 25.5618 133.188 38.3718C87.3798 51.9916 36.8496 54.9725 -9.08482 46.3691C-53.608 38.4578 -89.3107 20.0162 -112.135 -3.66349C-132.549 -24.8734 -141.659 -49.2949 -138.963 -73.5218" stroke="#C9EBDA" stroke-opacity="0.5" stroke-width="2.85875"/>
<path d="M-164.299 -91.6059C-176.173 -66.0174 -178.385 -38.0452 -168.103 -11.2263C-156.324 19.7585 -128.578 47.9433 -86.9139 67.4977C-41.4589 88.9474 16.1277 98.0392 75.4376 92.1408C133.811 86.3917 187.141 67.3123 226.304 39.0415C261.754 13.9822 282.602 -16.8443 289.649 -47.3361C295.715 -73.6122 291.427 -99.1734 278.255 -121.433C267.069 -140.756 249.5 -157.823 228.507 -171.194C209.595 -183.262 187.101 -192.788 163.412 -199.289" stroke="#C9EBDA" stroke-opacity="0.5" stroke-width="2.85875"/>
<path d="M179.193 -188.907C200.159 -181.023 219.27 -170.357 234.631 -157.461C251.689 -143.1 264.73 -125.649 271.031 -106.56C278.539 -84.7306 277.083 -60.6709 265.937 -36.937C253.245 -9.92814 228.403 15.9091 192.184 35.4183C153.121 56.886 103.789 69.8318 52.9065 71.4285C1.94208 73.0479 -46.0234 63.0196 -83.3952 43.5918C-118.143 25.9282 -140.688 1.41175 -150.725 -25.0588C-159.536 -48.3585 -158.424 -72.5537 -148.337 -95.1342" stroke="#C9EBDA" stroke-opacity="0.5" stroke-width="2.85875"/>
<path d="M-118.699 -97.731C-126.786 -73.3502 -122.643 -47.5355 -104.305 -24.851C-83.6655 0.904846 -46.3525 20.7397 0.427833 28.6148C48.8818 36.9875 102.818 31.3695 147.852 13.9502C189.68 -2.15291 219.873 -27.2213 234.148 -54.7231C246.696 -78.6606 246.524 -103.299 235.953 -124.554C226.766 -143.195 209.618 -159.597 188.259 -171.511C168.854 -182.431 144.894 -190.346 120.056 -194.49C96.2094 -198.497 70.4852 -199.244 45.3626 -196.706" stroke="#C9EBDA" stroke-opacity="0.5" stroke-width="2.85875"/>
<path d="M69.6655 -234.512C99.0084 -235.231 129.016 -233.363 157.536 -228.926C187.643 -224.28 217.854 -216.563 246.035 -205.929C277.685 -194.05 307.765 -177.92 334.059 -158.135C365.053 -134.799 392.17 -105.298 409.721 -70.9933C420.296 -50.9188 427.624 -29.2519 431.193 -6.40909C435.183 19.2246 434.418 46.2923 428.131 73.9389C421.083 104.996 407.124 136.42 385.598 166.563C361.665 200.045 328.975 231.052 287.713 256.881C243.592 284.975 192.298 306.293 136.308 319.022C78.5177 332.14 18.7509 335.501 -39.383 328.503C-96.1418 321.65 -147.812 305.063 -191.675 280.836C-232.575 258.233 -264.993 229.854 -288.139 197.869" stroke="#C9EBDA" stroke-opacity="0.5" stroke-width="2.85875"/>
</g>
</g>
<g clip-path="url(#clip2_33_2)">
<mask id="mask1_33_2" style="mask-type:luminance" maskUnits="userSpaceOnUse" x="775" y="1809" width="1917" height="1916">
<path d="M775.99 1809.39H2691.14V3724.54H775.99V1809.39Z" fill="white"/>
</mask>
<g mask="url(#mask1_33_2)">
<path d="M1897.11 2313.29C1920.38 2286.25 1933.97 2255.28 1938.17 2224.1C1941.83 2197.4 1938.55 2170.71 1930.19 2146.47C1922.87 2125.18 1911.35 2105.12 1897.13 2087.66C1884.26 2071.85 1868.88 2057.68 1852.16 2045.8C1836.47 2034.64 1819.05 2025.09 1800.99 2017.66C1783.34 2010.39 1764.64 2004.92 1745.7 2001.4C1726.43 1997.79 1706.39 1996.26 1686.62 1996.82C1665.79 1997.41 1644.5 2000.32 1624.18 2005.82" stroke="#04382E" stroke-opacity="0.08" stroke-width="2.01729"/>
<path d="M1807.08 2350.99C1848.44 2335.78 1880.55 2310.12 1901.43 2279.82C1919.45 2253.65 1928.6 2224.74 1929.11 2196.05C1929.64 2171.38 1924.11 2147.32 1914.07 2125.48C1905.16 2106.14 1892.45 2088.2 1877.45 2072.82C1851.19 2045.67 1814.73 2024.16 1777.55 2012.56C1759.33 2006.82 1739.95 2002.89 1720.59 2001.18C1700.64 1999.39 1680.01 1999.88 1660.04 2002.71" stroke="#04382E" stroke-opacity="0.08" stroke-width="2.01729"/>
<path d="M1887.14 2272.42C1906.07 2248.64 1916.37 2221.54 1918.46 2194.54C1920.27 2171.08 1915.99 2147.86 1907.07 2126.67C1899.26 2107.82 1887.34 2090.3 1873.14 2075.17C1860.1 2061.27 1844.72 2048.93 1828.02 2038.9C1796.99 2020.03 1758.27 2007.74 1721.06 2004.59C1701.57 2002.87 1681.56 2003.49 1662.19 2006.41C1641.45 2009.53 1620.7 2015.4 1601.73 2024.15" stroke="#04382E" stroke-opacity="0.08" stroke-width="2.01729"/>
<path d="M1835.72 2295.03C1868.72 2275.26 1891.18 2247.62 1901.69 2217.54C1910.76 2191.82 1910.8 2164.69 1903.82 2139.84C1897.81 2118.16 1886.2 2097.66 1871.08 2080.23C1857.41 2064.42 1840.4 2050.54 1821.86 2039.6C1787.5 2019.11 1742.72 2007.11 1701.43 2007.25C1679.28 2007.25 1656.6 2010.43 1635.49 2016.81C1612.21 2023.81 1589.96 2035.08 1571.57 2050.03" stroke="#04382E" stroke-opacity="0.08" stroke-width="2.01729"/>
<path d="M1605.95 2034.87C1623.49 2025.1 1643.42 2018.39 1663.61 2014.63C1682.45 2011.14 1702.15 2010.1 1721.37 2011.66C1758.06 2014.44 1796.62 2027.23 1826.16 2046.91C1842.14 2057.46 1856.61 2070.39 1868.15 2084.86C1880.78 2100.67 1890.27 2118.85 1895.1 2137.91C1900.6 2159.43 1900.42 2182.48 1893.13 2204.47C1884.86 2229.66 1867.49 2253.14 1841.89 2271.2" stroke="#04382E" stroke-opacity="0.08" stroke-width="2.01729"/>
<path d="M1601.32 2045.2C1618.74 2033.13 1639.55 2024.51 1661.05 2019.68C1680.92 2015.21 1702.15 2013.81 1722.64 2015.45C1742.48 2016.99 1762.59 2021.45 1781.01 2028.29C1799.75 2035.24 1817.67 2045.05 1832.91 2056.93C1849.21 2069.59 1863.23 2085.15 1873 2102.23C1883.92 2121.25 1889.86 2142.8 1889.21 2164.44C1888.53 2189.26 1878.91 2214.23 1860.06 2235.2C1838.65 2259.23 1806.23 2277.04 1767.38 2283.95" stroke="#04382E" stroke-opacity="0.08" stroke-width="2.01729"/>
<path d="M1787.01 2232.55C1812.32 2224.13 1832.48 2209.54 1845.16 2191.76C1856.63 2175.78 1861.76 2157.61 1860.92 2139.52C1860.21 2123.18 1854.73 2107.19 1845.53 2092.89C1837.08 2079.71 1825.28 2067.7 1811.66 2057.96C1798.67 2048.65 1783.64 2041.12 1767.84 2035.92C1752.12 2030.74 1735.24 2027.65 1718.71 2027.04C1701.57 2026.32 1684.22 2028.35 1668.18 2032.83C1651.04 2037.62 1634.85 2045.37 1621.99 2055.9" stroke="#04382E" stroke-opacity="0.08" stroke-width="2.01729"/>
<path d="M1591.2 2063.42C1604.39 2049.67 1621.29 2038.78 1639.88 2031.37C1656.9 2024.54 1675.77 2020.45 1694.59 2019.17C1712.51 2017.94 1731.03 2019.22 1748.64 2022.85C1766.13 2026.44 1783.37 2032.36 1798.88 2040.26C1831.63 2056.77 1860.07 2084.66 1872.16 2115.85C1879.33 2133.97 1881.67 2153.85 1877.99 2173.07C1873.87 2194.83 1861.97 2215.79 1842.66 2232.74" stroke="#04382E" stroke-opacity="0.08" stroke-width="2.01729"/>
<path d="M1849.89 2206.01C1862.77 2189.79 1869.47 2171.18 1870.24 2152.49C1870.9 2135.65 1866.9 2118.78 1859.03 2103.53C1845.43 2076.61 1818.36 2053.1 1788.02 2039.49C1773.46 2032.88 1757.34 2028.04 1741.21 2025.35C1724.89 2022.61 1707.88 2022.01 1691.5 2023.7C1674.21 2025.41 1657.29 2029.78 1642.06 2036.49C1625.55 2043.76 1610.57 2053.97 1599.27 2066.78" stroke="#04382E" stroke-opacity="0.08" stroke-width="2.01729"/>
<path d="M1617.97 2070.73C1629.59 2056.73 1646.04 2046.03 1664.69 2039.43C1681.85 2033.34 1701.35 2030.59 1720.28 2031.33C1738.53 2031.99 1757.52 2036.02 1774.42 2042.67C1791.59 2049.42 1807.59 2059.34 1820.23 2071.33C1833.79 2084.14 1843.94 2099.7 1848.63 2116.04C1853.92 2134.26 1852.75 2154.02 1843.95 2171.45C1834.16 2191.17 1814.92 2208.05 1789.04 2217.79C1760.95 2228.46 1727.45 2229.93 1695.03 2221.31" stroke="#04382E" stroke-opacity="0.08" stroke-width="2.01729"/>
<path d="M1707.85 2416.73C1740.68 2416.98 1772.55 2411.6 1801.93 2401.44C1829.65 2391.83 1854.38 2378.2 1875.23 2361.43C1894.54 2346 1910.23 2328.24 1922.19 2309.17C1933.12 2291.72 1940.83 2273.33 1945.38 2254.67C1949.64 2237.61 1951.11 2220.41 1950.25 2203.65C1949.45 2188.28 1946.7 2173.24 1942.34 2158.88C1934.57 2133.31 1921.52 2109.51 1904.66 2088.96C1889.9 2070.7 1871.78 2054.61 1852.32 2041.43C1834.14 2029.12 1813.98 2018.8 1793.01 2011.19C1772.57 2003.71 1750.86 1998.44 1728.9 1995.66C1706.34 1992.82 1682.78 1992.59 1659.87 1995.13" stroke="#04382E" stroke-opacity="0.08" stroke-width="2.01729"/>
<path d="M1692.45 2050.84C1671.7 2055.9 1653.3 2067.9 1644.04 2083.82C1633.21 2101.82 1633.84 2124.93 1647.57 2145.04C1662.31 2167.26 1691.45 2183.73 1723.32 2187.28C1754.75 2191.05 1784.54 2181.99 1802.21 2164.85" stroke="#04382E" stroke-opacity="0.08" stroke-width="2.01729"/>
<path d="M1718.04 2051.72C1697.62 2052.2 1677.56 2058.89 1664.06 2070.59C1649.08 2083.44 1641.92 2102.5 1647.13 2121.75C1652.51 2143.06 1672.33 2162.94 1699.79 2172.67C1727.27 2182.75 1758.91 2181.15 1781.25 2169.06" stroke="#04382E" stroke-opacity="0.08" stroke-width="2.01729"/>
<path d="M1694.08 2060.19C1676.28 2065.92 1661.94 2078.09 1656.71 2093.15C1650.58 2109.94 1655.84 2129.88 1671.78 2145.45C1688.63 2162.22 1715.57 2171.95 1741.82 2170.72C1767.06 2169.71 1788.32 2158.62 1798.46 2142.59" stroke="#04382E" stroke-opacity="0.08" stroke-width="2.01729"/>
<path d="M1710.77 2061.09C1691.2 2063.91 1673.84 2074.51 1666.8 2089.22C1658.51 2105.53 1663.28 2126.36 1680.34 2141.71C1698.21 2158.29 1727.29 2166.17 1752.64 2161.37C1776.59 2157.11 1793.77 2142.18 1797.24 2124.51" stroke="#04382E" stroke-opacity="0.08" stroke-width="2.01729"/>
<path d="M1785.95 2131.75C1778.18 2145.02 1760.65 2154.23 1740.1 2154.89C1718.87 2155.73 1696.89 2147.42 1683.9 2133.6C1671.41 2120.65 1668.1 2104.17 1674.42 2090.89C1679.97 2078.7 1693.37 2069.48 1709.25 2066.17" stroke="#04382E" stroke-opacity="0.08" stroke-width="2.01729"/>
<path d="M1780.79 2124.41C1774.99 2137.6 1758.37 2147.11 1738.7 2147.45C1718.43 2148.05 1697.63 2138.99 1687.24 2125.03C1677.11 2112.01 1677.28 2096.28 1686.57 2085.17C1694.82 2074.89 1710.7 2068.8 1726.87 2069.11" stroke="#04382E" stroke-opacity="0.08" stroke-width="2.01729"/>
<path d="M1725.06 2083.84C1716.16 2084.87 1708.56 2089.41 1705.53 2095.73C1702.14 2102.39 1703.95 2110.52 1710.34 2116.9C1716.63 2123.39 1727.62 2127.26 1737.64 2126.68C1747.56 2126.24 1756.19 2121.4 1759.43 2114.79" stroke="#04382E" stroke-opacity="0.08" stroke-width="2.01729"/>
<path d="M1775.53 2115.4C1773.53 2126.22 1763.58 2135.39 1749.52 2138.78C1735.05 2142.48 1717.38 2139.34 1704.87 2130.95C1692.56 2122.89 1686.18 2110.47 1688.13 2099.48C1689.79 2089.1 1698.45 2080.36 1710.42 2076.43" stroke="#04382E" stroke-opacity="0.08" stroke-width="2.01729"/>
<path d="M1709.69 2082.79C1701.04 2087.11 1695.62 2095.05 1695.88 2103.52C1696.03 2112.42 1702.54 2121.8 1712.85 2127.44C1723.33 2133.25 1737.04 2135.01 1748.09 2131.8C1758.93 2128.78 1766.48 2121.6 1768.21 2113.09" stroke="#04382E" stroke-opacity="0.08" stroke-width="2.01729"/>
<path d="M1753.34 2109.34C1751.85 2115.43 1744.67 2119.99 1736.18 2120.29C1732.07 2120.48 1727.41 2119.59 1723.51 2117.86C1719.69 2116.17 1716.45 2113.61 1714.35 2110.58C1712.28 2107.6 1711.41 2104.34 1711.82 2101.31C1712.2 2098.28 1713.88 2095.36 1716.38 2093.29C1721.36 2089.04 1730.09 2087.56 1737.72 2089.67" stroke="#04382E" stroke-opacity="0.08" stroke-width="2.01729"/>
<path d="M1738.21 2045.3C1713.44 2041.32 1686.64 2044.9 1666.33 2055.47C1643.19 2067.3 1627.6 2088.34 1627.38 2112.34C1626.82 2139.95 1646.7 2168.71 1680.9 2184.76C1715.67 2201.61 1758.92 2201.42 1789.09 2185.25" stroke="#04382E" stroke-opacity="0.08" stroke-width="2.01729"/>
</g>
</g>
<g clip-path="url(#clip3_33_2)">
<mask id="mask2_33_2" style="mask-type:luminance" maskUnits="userSpaceOnUse" x="239" y="-1073" width="2714" height="2715">
<path d="M239 -1072H2953V1642H239V-1072Z" fill="white"/>
</mask>
<g mask="url(#mask2_33_2)">
<path d="M1479.81 533.575C1451.34 505.015 1428.79 470.488 1414.35 432.7C1399.83 394.953 1393.48 354.098 1395.58 313.954C1397.61 273.692 1408.25 233.683 1426.6 197.691C1444.94 161.68 1470.83 129.641 1502.14 104.202C1533.4 78.7178 1570.12 59.8012 1609.19 49.2981C1648.3 38.7316 1689.26 36.5422 1729.18 42.6442C1809.38 54.5948 1882.98 102.239 1927.05 169.944" stroke="#04382E" stroke-opacity="0.08" stroke-width="2.85875"/>
<path d="M1563.42 577.438C1491.58 542.64 1436.6 475.469 1417.04 397.903C1407.15 359.214 1405.73 318.708 1412.79 279.473C1419.88 240.228 1435.65 202.572 1458.6 170.031C1504.09 104.605 1579.24 60.6293 1658.86 53.6724C1698.42 49.9769 1738.88 54.7218 1776.52 68.0159C1814.17 81.1878 1848.79 102.705 1877.34 130.42" stroke="#04382E" stroke-opacity="0.08" stroke-width="2.85875"/>
<path d="M1484.91 500.328C1459.98 471.302 1441.44 436.739 1431.18 399.802C1420.89 362.837 1418.82 323.823 1425.04 286.031C1437.06 210.116 1484.55 141.162 1550.68 102.356C1616.59 62.7863 1699.82 54.7258 1772.16 80.4409C1844.74 105.573 1904.53 164.005 1931.34 235.976" stroke="#04382E" stroke-opacity="0.08" stroke-width="2.85875"/>
<path d="M1538.66 531.987C1504.7 507.503 1476.98 474.437 1458.98 436.599C1440.88 398.812 1432.7 356.369 1435.12 314.628C1437.41 272.818 1450.53 231.62 1472.84 196.18C1495.05 160.681 1526.31 130.94 1562.88 110.521C1635.94 68.9202 1730.01 68.2644 1803.69 108.735C1840.56 128.619 1872.22 157.926 1894.98 193.068C1917.83 228.16 1931.52 269.177 1934.43 310.941" stroke="#04382E" stroke-opacity="0.08" stroke-width="2.85875"/>
<path d="M1911.42 259.027C1890.13 188.644 1834.03 130.054 1764.64 105.718C1695.55 80.6632 1614.97 90.2211 1553.98 131.37C1523.41 151.639 1497.64 179.077 1479.34 210.867C1461.03 242.644 1450.28 278.745 1448.26 315.37C1446.15 351.982 1452.58 389.078 1467.16 422.745C1481.63 456.448 1504.15 486.637 1532.21 510.253" stroke="#04382E" stroke-opacity="0.08" stroke-width="2.85875"/>
<path d="M1904.39 284.815C1896.88 246.914 1879.16 211.138 1853.74 182.008C1828.37 152.842 1795.36 130.352 1758.88 117.646C1722.46 104.831 1682.58 101.805 1644.57 108.744C1606.55 115.633 1570.44 132.627 1540.9 157.591C1511.27 182.429 1488.26 215.074 1474.88 251.31C1461.42 287.51 1457.76 327.311 1464.01 365.452C1470.19 403.593 1486.59 439.983 1511.01 469.959C1535.34 500.012 1567.58 523.592 1603.58 537.605" stroke="#04382E" stroke-opacity="0.08" stroke-width="2.85875"/>
<path d="M1590.52 487.36C1564.15 471.674 1541.76 449.17 1526.15 422.745C1510.48 396.346 1501.67 366.158 1500.67 335.381C1499.59 304.505 1506.24 273.773 1520.04 246.375C1533.75 218.959 1554.57 194.999 1579.81 177.499C1605.02 159.93 1634.52 148.898 1665.05 145.686C1695.72 142.411 1727.03 146.799 1755.28 158.537C1812.28 181.579 1855.84 235.366 1866.27 295.829" stroke="#04382E" stroke-opacity="0.08" stroke-width="2.85875"/>
<path d="M1895.55 326.687C1895.25 292.559 1886.55 258.697 1870.28 228.766C1854.08 198.813 1830.45 172.862 1802.14 153.905C1773.87 134.889 1740.98 122.929 1707.09 119.446C1673.15 115.909 1638.42 120.559 1606.84 133.22C1543.29 158.098 1493.78 215.965 1479.32 282.63C1471.85 315.813 1472.59 351.018 1481.43 383.831C1490.22 416.693 1507.25 447.325 1530.47 472.28" stroke="#04382E" stroke-opacity="0.08" stroke-width="2.85875"/>
<path d="M1521.05 439.327C1503.81 413.838 1492.75 384.378 1488.93 353.882C1485.12 323.313 1488.36 291.835 1498.68 262.958C1518.85 204.842 1568.23 157.592 1627.16 140.027C1656.44 131.044 1688.14 129.117 1718.42 134.296C1748.7 139.449 1777.68 151.811 1802.38 170.185C1852.23 206.688 1882.92 267.201 1882.41 328.976" stroke="#04382E" stroke-opacity="0.08" stroke-width="2.85875"/>
<path d="M1856.05 327.112C1855.77 293.363 1845.38 260.307 1826.37 232.57C1807.46 204.806 1780.13 182.736 1749.11 170.238C1718.27 157.632 1683.12 154.547 1650.28 161.278C1617.51 167.922 1586.83 184.618 1563.2 208.596C1539.49 232.493 1523.14 263.328 1516.85 296.186C1510.44 329.116 1513.9 364.199 1526.85 394.908C1539.69 425.793 1562.05 452.897 1590.03 471.488C1617.96 490.187 1651.12 500.197 1684.89 500.161" stroke="#04382E" stroke-opacity="0.08" stroke-width="2.85875"/>
<path d="M1632.76 627.348C1586.62 619.36 1542.36 600.394 1504.86 572.526C1467.28 544.734 1436.28 508.231 1415.01 466.521C1371.89 382.935 1371.05 279.997 1412.86 195.755C1453.69 111.354 1535.49 48.5246 1628.01 31.4716C1674.02 22.7235 1721.62 24.6957 1766.85 37.3475C1811.99 49.9902 1853.97 73.3442 1888.52 104.777" stroke="#04382E" stroke-opacity="0.08" stroke-width="2.85875"/>
<path d="M1775.81 242.612C1800.79 267.345 1814.65 303.424 1812.58 338.479C1810.96 373.766 1793.46 408.017 1766.06 430.05C1738.85 452.481 1701.62 462.5 1666.96 456.946C1631.91 451.671 1599.78 430.909 1580.57 401.376" stroke="#04382E" stroke-opacity="0.08" stroke-width="2.85875"/>
<path d="M1737.11 227.975C1767.18 242.562 1790.12 270.593 1798.36 303.107C1806.74 335.372 1800.4 371.188 1780.94 398.45C1761.95 425.812 1730.47 444.204 1697.14 447.139C1664.1 450.468 1629.46 438.4 1605.75 415.015" stroke="#04382E" stroke-opacity="0.08" stroke-width="2.85875"/>
<path d="M1765.95 263.654C1786.02 286.687 1794.97 319.011 1789.82 349.037C1785.01 379.325 1766.11 406.782 1739.76 422.243C1713.45 438.02 1680.35 441.218 1651.5 430.973C1622.54 420.944 1598.78 397.69 1588.06 368.994" stroke="#04382E" stroke-opacity="0.08" stroke-width="2.85875"/>
<path d="M1741.33 255.517C1767.14 273.742 1782.43 305.803 1780.3 337.331C1778.81 368.976 1759.89 398.943 1732.21 414.168C1704.68 429.855 1669.31 430.077 1641.54 414.856C1613.62 400.024 1594.31 370.328 1592.33 338.719" stroke="#04382E" stroke-opacity="0.08" stroke-width="2.85875"/>
<path d="M1606.52 356.555C1614.03 381.329 1633.78 401.942 1658.2 410.527C1682.51 419.325 1710.88 415.987 1732.35 401.499C1753.99 387.309 1768.29 362.598 1769.57 336.724C1771.21 310.901 1759.97 284.647 1740.02 268.124" stroke="#04382E" stroke-opacity="0.08" stroke-width="2.85875"/>
<path d="M1615.01 346.282C1619.74 370.957 1638.43 392.452 1662.25 400.544C1685.94 408.998 1713.91 404.018 1733.01 387.584C1752.48 371.495 1762.32 344.984 1757.98 320.087C1754.13 295.245 1736.19 273.144 1712.66 264.215" stroke="#04382E" stroke-opacity="0.08" stroke-width="2.85875"/>
<path d="M1706.93 297.208C1718.66 304.115 1726.31 317.039 1726.63 330.514C1727.23 344.161 1720.5 357.36 1709.27 365.144C1698.44 372.951 1683.17 374.471 1670.85 369.297C1658.38 364.303 1648.76 352.343 1646.54 339.23" stroke="#04382E" stroke-opacity="0.08" stroke-width="2.85875"/>
<path d="M1624.37 332.603C1624.37 352.732 1635.02 372.273 1651.82 383.396C1668.32 394.731 1690.67 396.984 1709.2 389.457C1727.85 382.165 1742.46 365.099 1746.67 345.567C1751.18 325.927 1745.49 304.459 1731.65 289.826" stroke="#04382E" stroke-opacity="0.08" stroke-width="2.85875"/>
<path d="M1728.73 303.364C1737.71 316.428 1739.9 334.082 1734.5 349.037C1729.3 364.031 1716.42 376.353 1701.24 380.876C1686 385.558 1668.54 382.699 1655.85 373.078C1642.89 363.534 1635.02 347.978 1635.1 331.934" stroke="#04382E" stroke-opacity="0.08" stroke-width="2.85875"/>
<path d="M1656.64 332.269C1656.5 343.948 1664.32 355.135 1675.16 359.427C1680.34 361.576 1686.63 362.141 1692.31 360.983C1697.91 359.843 1703.2 356.989 1707.34 352.782C1711.49 348.58 1714.28 343.279 1715.36 337.661C1716.49 331.953 1715.87 325.697 1713.66 320.527C1709.23 309.68 1697.97 302.09 1686.27 302.284" stroke="#04382E" stroke-opacity="0.08" stroke-width="2.85875"/>
<path d="M1709.86 196.755C1751.99 203.806 1789.43 231.684 1808.53 269.607C1828.12 307.585 1828.46 354.031 1809.52 392.312C1791.02 430.575 1754.01 458.94 1712.01 466.725C1670.6 474.985 1625.14 462.288 1594 433.524" stroke="#04382E" stroke-opacity="0.08" stroke-width="2.85875"/>
</g>
</g>
<g clip-path="url(#clip4_33_2)">
<mask id="mask3_33_2" style="mask-type:luminance" maskUnits="userSpaceOnUse" x="-2027" y="842" width="2715" height="2715">
<path d="M-2027 843H687V3557H-2027V843Z" fill="white"/>
</mask>
<g mask="url(#mask3_33_2)">
<path d="M92.8775 1555.43C71.3147 1523.49 58.7353 1487.1 54.4698 1449.97C50.7652 1418.21 53.0857 1385.35 59.9883 1354.17C66.122 1326.31 76.2407 1298.53 89.1639 1272.7C101.191 1248.67 116.032 1225.41 132.719 1204.08C148.881 1183.41 167.44 1163.67 187.379 1146.01C207.553 1128.12 229.726 1111.78 253.031 1097.64C277.678 1082.65 304.348 1069.93 331.737 1060.17C361.826 1049.46 393.951 1041.92 425.917 1039.05" stroke="#7BC0AD" stroke-opacity="0.15" stroke-width="2.85875"/>
<path d="M182.964 1602.54C139.961 1582.7 108.347 1551.06 88.3538 1514.61C71.5541 1483.92 62.883 1449.69 61.8833 1414.83C60.9515 1384.71 65.4205 1354.06 74.1053 1324.78C81.9714 1298.32 93.6054 1272.15 107.818 1247.96C133.718 1203.58 172.162 1160.7 214.342 1128.77C236.176 1112.16 260.281 1097.13 285.318 1084.94C312.177 1071.84 341.095 1061.47 370.271 1054.92" stroke="#7BC0AD" stroke-opacity="0.15" stroke-width="2.85875"/>
<path d="M101.54 1504.55C83.5821 1476.62 73.7483 1444.39 71.3691 1411.46C69.3064 1382.77 72.7577 1353.17 80.5514 1324.75C87.4993 1299.02 98.5136 1273.49 112.066 1249.78C124.867 1227.42 140.422 1205.8 157.9 1186.21C191.92 1147.75 237.47 1113.04 284.689 1090.46C310.861 1077.81 338.838 1068.17 367.019 1062.25C398.479 1055.64 431.318 1053.45 462.538 1057.32" stroke="#7BC0AD" stroke-opacity="0.15" stroke-width="2.85875"/>
<path d="M152.415 1530.18C119.223 1506.84 97.3657 1473.99 87.0842 1437.67C78.3134 1406.96 77.7932 1373.22 83.7912 1340.68C89.0428 1311.87 99.7315 1282.69 114.174 1255.84C127.618 1230.79 144.947 1206.52 164.533 1184.94C202.768 1142.52 256.782 1104.85 311.007 1084.68C342.051 1073.01 375.307 1065.77 407.635 1064.51C444.998 1062.99 482.356 1069.61 514.394 1085.53" stroke="#7BC0AD" stroke-opacity="0.15" stroke-width="2.85875"/>
<path d="M455.09 1078.59C426.548 1071.76 395.242 1071.66 364.773 1076.57C337.479 1080.99 310 1089.54 284.239 1101.55C237.739 1122.91 192.384 1157.87 159.97 1196.61C143.206 1216.5 128.51 1238.51 117.143 1261.1C105.002 1285.21 96.1772 1311 91.9117 1336.42C87.1124 1364.75 87.6778 1393.71 94.8472 1420.21C103.044 1450.84 120.101 1478.74 145.857 1499.72" stroke="#7BC0AD" stroke-opacity="0.15" stroke-width="2.85875"/>
<path d="M462.546 1094.02C434.027 1082.85 401.11 1079.78 368.484 1083.49C339.598 1086.75 309.97 1095.4 282.545 1108C257.056 1119.67 232.236 1135.3 210.352 1153.09C188.894 1170.52 169.131 1191 152.884 1212.71C136.03 1235.16 122.039 1260.08 112.603 1285.21C102.276 1312.59 96.9569 1341.55 97.9068 1369C98.9653 1400.36 108.5 1430.59 127.173 1455.05C149.034 1483.92 183.362 1504.72 227.012 1511.32" stroke="#7BC0AD" stroke-opacity="0.15" stroke-width="2.85875"/>
<path d="M204.356 1442.59C176.393 1434.57 154.903 1418 141.631 1396.57C129.844 1377.65 124.483 1354.92 125.071 1331.1C125.569 1309.49 130.888 1286.97 140.107 1265.38C148.733 1245.1 161.109 1224.96 175.805 1206.87C190.189 1189.13 207.342 1172.66 225.933 1158.81C245.035 1144.56 266.217 1132.52 287.658 1124.04C310.664 1114.79 334.755 1109.51 357.756 1108.7C383.2 1107.81 407.983 1112.38 428.157 1123.55" stroke="#7BC0AD" stroke-opacity="0.15" stroke-width="2.85875"/>
<path d="M479.215 1120.45C457.24 1103.52 429.743 1093.97 400.445 1091.5C374.59 1089.28 346.921 1092.5 320.328 1100.07C295.947 1106.97 271.639 1117.76 249.343 1131.25C227.971 1144.18 207.616 1159.93 189.902 1177.31C154.236 1212.06 125.2 1258.54 113.63 1302.78C106.913 1327.96 104.945 1354.03 108.776 1377.98C113.087 1405.16 125.042 1430.34 144.646 1449.85" stroke="#7BC0AD" stroke-opacity="0.15" stroke-width="2.85875"/>
<path d="M137 1415.96C123.9 1396.91 117.043 1374.02 116.03 1349.98C115.139 1328.27 118.852 1305.33 126.497 1283.25C140.017 1243.45 168.446 1202.43 202.276 1172.02C219.248 1156.67 238.621 1142.78 258.641 1131.7C279.58 1120.09 302.142 1111.09 324.583 1105.72C349.117 1099.74 373.914 1098.12 396.965 1101.24C422.762 1104.76 446.835 1114.29 465.34 1130.57" stroke="#7BC0AD" stroke-opacity="0.15" stroke-width="2.85875"/>
<path d="M434.259 1146.78C415.998 1128.82 390.645 1119.2 362.776 1117.71C338.043 1116.33 310.925 1121.39 285.559 1131.36C262.028 1140.54 238.403 1154.69 218.138 1171.3C198.236 1187.58 180.31 1207.39 166.581 1228.32C152.238 1250.11 141.82 1274.06 137.193 1297.16C132.046 1322.6 133.48 1348.38 142.639 1369.59C152.966 1393.94 173.466 1413.34 201.999 1422.62C234.458 1433.3 275.417 1430.47 317.747 1412.42" stroke="#7BC0AD" stroke-opacity="0.15" stroke-width="2.85875"/>
<path d="M299.326 1697.76C258.603 1694.65 221.358 1684.41 188.835 1668.64C159.592 1654.47 134.559 1636.02 114.127 1614.52C95.7672 1595.32 81.1524 1573.83 70.1109 1551.13C60.1777 1530.66 53.1348 1509.16 48.8422 1487.26C41.2113 1449.13 42.3151 1409.22 49.5479 1371.59C55.8534 1338.82 67.0441 1306.44 82.1295 1276.33C108.311 1223.43 149.97 1171.89 196.393 1133.42C220.213 1113.6 246.607 1095.65 274.48 1080.62C304.438 1064.48 337.241 1051.22 370.668 1042.28" stroke="#7BC0AD" stroke-opacity="0.15" stroke-width="2.85875"/>
<path d="M322.971 1149.13C352.3 1147.73 379.21 1158.76 392.915 1180.78C409.254 1205.9 407.747 1244.37 386.343 1281.91C364.197 1321.79 322.967 1354.79 280.854 1367.28C241.841 1379.22 206.939 1372.33 187.004 1352.28" stroke="#7BC0AD" stroke-opacity="0.15" stroke-width="2.85875"/>
<path d="M288.405 1161.71C315.834 1153.56 343.834 1155.2 363.189 1167.98C385.276 1182.34 395.784 1210.6 387.475 1244.05C379.002 1280.33 349.859 1317.8 311.79 1340C275.834 1361.46 236.848 1365.93 210.635 1353.61" stroke="#7BC0AD" stroke-opacity="0.15" stroke-width="2.85875"/>
<path d="M320.621 1164.55C345.577 1165.86 366.189 1179.19 373.667 1201.37C382.51 1226.17 374.313 1260.28 350.901 1290.21C327.072 1321.15 290.93 1342.77 257.634 1347.16C227.147 1351.41 202.531 1340.59 191.023 1320.71" stroke="#7BC0AD" stroke-opacity="0.15" stroke-width="2.85875"/>
<path d="M297.972 1173.05C324.574 1169.16 348.941 1178.54 358.892 1199.15C370.789 1222.09 363.438 1257.21 338.827 1287.01C314.043 1317.72 275.862 1337.03 244.384 1336.16C215.969 1335.77 196.279 1318.99 192.275 1295.26" stroke="#7BC0AD" stroke-opacity="0.15" stroke-width="2.85875"/>
<path d="M205.093 1302.4C214.076 1319.1 234.725 1327.85 259.794 1323.66C286.73 1319.39 315.933 1300.77 333.936 1275.48C351.78 1250.98 356.783 1223.58 347.877 1204.89C340.137 1187.78 321.514 1178.83 299.965 1180.26" stroke="#7BC0AD" stroke-opacity="0.15" stroke-width="2.85875"/>
<path d="M210.994 1290.65C217.77 1307.77 237.455 1317.05 261.547 1312.4C287.348 1307.8 315.013 1288.08 329.397 1263.24C343.763 1239.35 343.731 1214.56 330.776 1200.69C319.454 1187.89 298.018 1184.9 276.804 1191.81" stroke="#7BC0AD" stroke-opacity="0.15" stroke-width="2.85875"/>
<path d="M279.08 1213.39C290.678 1211.65 300.715 1215.74 304.719 1224.33C309.233 1233.35 306.731 1246.47 298.146 1258.36C289.823 1270.22 275.597 1279.4 262.918 1281.55C250.592 1283.82 240.076 1279.31 236.145 1270.69" stroke="#7BC0AD" stroke-opacity="0.15" stroke-width="2.85875"/>
<path d="M217.063 1276.34C219.447 1291.2 231.203 1301.59 248.188 1302.66C266.137 1304.1 288.772 1294.44 305.341 1278C322.073 1261.68 331.033 1240.19 328.441 1223.72C326.248 1208.11 314.432 1197.88 298.329 1196.52" stroke="#7BC0AD" stroke-opacity="0.15" stroke-width="2.85875"/>
<path d="M299.26 1206C310.853 1209.34 318.167 1219.6 317.72 1232.84C317.439 1246.68 308.528 1263.29 294.773 1275.14C281.085 1287.07 263.652 1293.66 249.955 1292.09C236.765 1290.78 227.746 1282.59 225.674 1270.88" stroke="#7BC0AD" stroke-opacity="0.15" stroke-width="2.85875"/>
<path d="M243.531 1260.9C245.354 1269.32 254.174 1273.81 264.768 1271.66C269.97 1270.69 275.909 1267.9 280.925 1264.08C285.887 1260.3 290.126 1255.38 292.899 1250.1C295.653 1244.86 296.816 1239.61 296.305 1235.12C295.816 1230.64 293.627 1226.78 290.343 1224.55C283.852 1219.9 272.607 1220.83 262.909 1226.71" stroke="#7BC0AD" stroke-opacity="0.15" stroke-width="2.85875"/>
<path d="M262.4 1160.46C294.547 1143.68 331.15 1137.06 360.113 1144.55C394.567 1153.1 418.369 1181.02 418.143 1221.02C418.338 1266.6 387.199 1319.74 337.505 1353.87C290.621 1386.86 236.843 1394.77 201.783 1377.75" stroke="#7BC0AD" stroke-opacity="0.15" stroke-width="2.85875"/>
</g>
</g>
<g clip-path="url(#clip5_33_2)">
<mask id="mask4_33_2" style="mask-type:luminance" maskUnits="userSpaceOnUse" x="-153" y="1654" width="2714" height="2715">
<path d="M-153 1655H2561V4369H-153V1655Z" fill="white"/>
</mask>
<g mask="url(#mask4_33_2)">
<path d="M109.873 3184.6C90.9387 3164.32 78.2553 3143.21 71.3527 3122.18C65.201 3103.42 63.7128 3084.9 66.3906 3067.12C70.7647 3037.02 87.0622 3009.34 110.023 2986.17C128.966 2967.01 153.257 2950.26 179.831 2936.74C202.837 2925.03 228.29 2915.3 254.344 2907.76C277.997 2900.92 303.142 2895.59 328.296 2891.96C352.283 2888.5 377.049 2886.43 401.619 2885.74C450.675 2884.33 505 2888.91 553.843 2899.2" stroke="#04382E" stroke-opacity="0.08" stroke-width="2.85875"/>
<path d="M284.286 3241.88C242.427 3229.87 206.263 3213.59 176.73 3194.58C149.707 3177.14 128.977 3157.88 114.502 3137.86C101.471 3119.84 93.6859 3101.48 90.7774 3083.45C88.1584 3067.28 89.4656 3051.48 94.2875 3036.38C102.366 3010.64 119.971 2987.45 143.23 2967.98C162.775 2951.65 186.907 2937.59 212.849 2926.4C235.578 2916.52 260.791 2908.51 286.335 2902.51C309.96 2896.96 334.897 2892.89 359.88 2890.52C383.957 2888.21 409.039 2887.26 433.745 2887.82C458.85 2888.38 484.628 2890.49 509.611 2894.09" stroke="#04382E" stroke-opacity="0.08" stroke-width="2.85875"/>
<path d="M145.165 3128.61C117.26 3097.92 107.992 3065.38 113.891 3035.44C118.712 3011 133.422 2988.58 154.248 2969.62C171.667 2953.59 194.275 2939.76 218.841 2928.65C240.53 2918.85 264.549 2910.79 289.373 2904.8C333.544 2893.99 385.327 2888.93 433.283 2890.08C457.886 2890.63 483.017 2892.78 507.371 2896.39C533.312 2900.25 559.566 2905.94 584.186 2913.48" stroke="#04382E" stroke-opacity="0.08" stroke-width="2.85875"/>
<path d="M238.132 3160C207.858 3145.94 183.807 3129.36 166.41 3111.5C150.687 3095.35 140.709 3078.46 136.231 3061.65C128.455 3033.04 137.022 3005.31 155.934 2981.95C171.386 2962.75 194.437 2946 220.989 2932.9C243.954 2921.54 270.519 2912.38 297.917 2905.87C346.357 2894.2 405.532 2889.88 458.337 2893.6C486.196 2895.5 514.739 2899.58 541.639 2905.69C571.316 2912.4 600.619 2922.04 626.32 2934.1" stroke="#04382E" stroke-opacity="0.08" stroke-width="2.85875"/>
<path d="M580.952 2920.61C557.675 2912.38 532.06 2906.11 506.498 2901.85C482.57 2897.87 457.606 2895.47 433.162 2894.87C385.563 2893.56 333.635 2899.14 291.147 2910.91C267.137 2917.49 244.199 2926.28 224.55 2936.91C202.169 2949.01 183.216 2963.98 170.736 2980.83C155.813 3000.85 149.449 3023.97 155.664 3047.69C162.992 3076.38 188.264 3105.09 231.575 3128.55" stroke="#04382E" stroke-opacity="0.08" stroke-width="2.85875"/>
<path d="M588.588 2928.33C564.845 2918.37 537.696 2910.65 510.257 2905.53C484.845 2900.79 457.845 2898.01 431.673 2897.37C405.972 2896.7 379.524 2898.06 354.722 2901.28C328.867 2904.64 303.269 2910.27 280.454 2917.9C255.177 2926.3 231.9 2937.57 213.861 2950.97C192.737 2966.6 178.059 2985.78 173.595 3006.58C168.103 3031.78 178.109 3059.21 206.461 3084.02C222.492 3098.18 244.005 3111.06 270.294 3121.81C298.366 3133.29 330.988 3142.01 366.492 3147.04" stroke="#04382E" stroke-opacity="0.08" stroke-width="2.85875"/>
<path d="M334.905 3084.44C292.44 3073.76 260.031 3056.67 241.589 3037.1C225.45 3020.06 220.637 3001.88 225.549 2984.91C229.733 2970.2 241.042 2956.69 257.24 2945.42C271.597 2935.38 290.197 2926.88 310.583 2920.52C329.491 2914.61 350.633 2910.34 372.255 2907.93C393.374 2905.56 415.647 2904.82 437.246 2905.81C481.977 2907.73 530.427 2918 564.578 2934.49" stroke="#04382E" stroke-opacity="0.08" stroke-width="2.85875"/>
<path d="M604.849 2942.41C585.616 2931.32 562.61 2922.17 538.243 2915.42C516.02 2909.25 491.829 2904.83 467.837 2902.35C444.831 2899.97 420.939 2899.26 397.952 2900.26C374.733 2901.27 351.361 2904 329.744 2908.38C306.711 2912.99 284.76 2919.74 265.558 2928.13C244.231 2937.46 225.409 2949.24 212.454 2962.78C197.215 2978.42 188.793 2996.83 190.272 3015.92C191.968 3038.55 207.659 3061.89 238.115 3082.02" stroke="#04382E" stroke-opacity="0.08" stroke-width="2.85875"/>
<path d="M230.814 3051.89C212.151 3033.96 204.995 3014.61 207.85 2996.37C210.369 2980.61 220.099 2965.78 235.08 2953.22C259.728 2932.2 301.546 2916.25 344.712 2908.76C364.75 2905.24 386.426 2903.17 407.749 2902.67C429.031 2902.16 451.01 2903.2 472.13 2905.77C494.29 2908.42 516.155 2912.88 536.23 2918.87C558.082 2925.39 578.659 2933.97 595.368 2944.3" stroke="#04382E" stroke-opacity="0.08" stroke-width="2.85875"/>
<path d="M572.285 2945.87C555.051 2934.52 532.512 2925.39 507.891 2919.14C485.283 2913.37 459.962 2909.79 435.373 2908.71C411.408 2907.63 386.132 2908.89 363.171 2912.28C339.288 2915.8 316.228 2921.93 297.108 2930.15C275.885 2939.23 258.628 2951.22 248.966 2964.82C237.653 2980.63 235.98 2999.08 247.225 3016.59C260.157 3037.16 290.025 3056.05 332.553 3067.96C378.976 3081.08 434.206 3084.26 485.473 3076.39" stroke="#04382E" stroke-opacity="0.08" stroke-width="2.85875"/>
<path d="M487.628 3350.3C418.629 3352.72 349.956 3344.62 286.878 3327.4C227.703 3311.22 176.929 3287.95 137.083 3259.81C101.303 3234.76 75.5565 3206.86 59.3178 3178.23C45.1417 3153.14 38.5421 3127.96 38.5919 3103.67C38.4516 3082.47 43.6671 3062.15 52.7409 3043.32C60.7336 3026.76 71.7479 3011.32 84.8837 2997.26C107.08 2973.48 135.816 2953.2 167.896 2937.16C194.62 2923.61 224.587 2912.68 254.748 2904.48C281.897 2897.12 310.616 2891.58 339.38 2888.17C366.696 2884.89 394.963 2883.29 423.003 2883.4C451.305 2883.51 480.589 2885.42 508.996 2889.09" stroke="#04382E" stroke-opacity="0.08" stroke-width="2.85875"/>
<path d="M473.039 2925.17C500.658 2930.58 526.116 2941.03 540.523 2953.98C557.788 2969.07 560.968 2988.17 545.385 3004.72C527.853 3024.06 486.862 3038.12 438.512 3039.8C389.425 3041.76 342.288 3030.86 315.428 3012.93" stroke="#04382E" stroke-opacity="0.08" stroke-width="2.85875"/>
<path d="M439.254 2923.73C466.339 2925.75 493.312 2932.34 512.337 2942.24C533.818 2953.3 546.248 2969 542.227 2984.57C538.129 3002.65 512.663 3019.43 473.219 3026.93C432.188 3035.07 382.929 3031.59 348.203 3018.37" stroke="#04382E" stroke-opacity="0.08" stroke-width="2.85875"/>
<path d="M471.631 2931.99C495.718 2937.73 516.073 2948.18 525.015 2960.4C535.699 2974.47 531.452 2990.91 511.151 3003.52C488.738 3017.74 449.435 3025.28 409.412 3022.48C370.385 3019.9 337.736 3007.9 323.139 2992.3" stroke="#04382E" stroke-opacity="0.08" stroke-width="2.85875"/>
<path d="M449.454 2931.33C475.762 2935.03 499.862 2944.49 510.958 2956.52C524.293 2970.28 520.588 2987.37 498.455 2999.62C474.251 3013.48 431.388 3019.04 392.745 3012.86C356.02 3007.27 330.386 2992.25 326.374 2976.17" stroke="#04382E" stroke-opacity="0.08" stroke-width="2.85875"/>
<path d="M342.948 2983.42C354.075 2995.95 380.55 3005.65 411.698 3007.63C443.488 3009.8 475.192 3003.64 492.462 2992.24C508.533 2981.95 511.044 2968.47 500.889 2957.28C492.118 2947.26 473.337 2939.1 451.797 2935.3" stroke="#04382E" stroke-opacity="0.08" stroke-width="2.85875"/>
<path d="M351.066 2977.32C359.217 2989.43 384.095 2999.23 413.619 3000.88C443.704 3002.79 473.358 2996.05 486.843 2984.58C499.589 2974.28 497.608 2961.39 483.862 2951.82C471.834 2943.15 450 2937.2 428.075 2936.14" stroke="#04382E" stroke-opacity="0.08" stroke-width="2.85875"/>
<path d="M431.135 2947.79C443.457 2949.3 454.186 2953.5 458.787 2958.82C463.979 2964.51 462.061 2971.1 453.481 2976C444.913 2981.09 429.258 2983.66 414.679 2982.44C400.173 2981.34 387.53 2976.51 382.826 2970.6" stroke="#04382E" stroke-opacity="0.08" stroke-width="2.85875"/>
<path d="M359.228 2969.91C361.82 2979.43 376.421 2988.27 397.378 2992.3C418.918 2996.63 444.755 2995.01 462.292 2988.48C479.123 2982.37 486.863 2972.36 483.09 2963.17C479.856 2954.7 467.358 2947.12 450.83 2943.11" stroke="#04382E" stroke-opacity="0.08" stroke-width="2.85875"/>
<path d="M452.217 2948.16C464.344 2952.25 472.41 2959.02 472.753 2965.9C473.31 2973.27 464.905 2980.74 450.584 2984.86C435.752 2989.21 415.768 2989.81 399.453 2986.18C383.427 2982.74 372.399 2975.93 370.051 2968.49" stroke="#04382E" stroke-opacity="0.08" stroke-width="2.85875"/>
<path d="M391.7 2966.44C393.867 2971.71 404.32 2976.14 416.633 2977.02C422.586 2977.49 429.262 2977.06 434.771 2975.87C440.15 2974.71 444.614 2972.78 447.414 2970.39C450.16 2968.05 451.168 2965.42 450.413 2962.9C449.694 2960.38 447.197 2957.89 443.601 2956.02C436.477 2952.22 424.291 2950.36 413.693 2951.46" stroke="#04382E" stroke-opacity="0.08" stroke-width="2.85875"/>
<path d="M412.092 2917.3C444.823 2916.48 480.137 2921.29 507.603 2930.69C539.184 2941.35 562.896 2958.74 567.442 2978.07C573.408 3001.57 550.687 3026.36 502.844 3039.73C451.292 3054.69 382.673 3052.15 334.78 3033.87" stroke="#04382E" stroke-opacity="0.08" stroke-width="2.85875"/>
</g>
</g>
</g>
<defs>
<linearGradient id="paint0_linear_33_2" x1="0" y1="0" x2="313.324" y2="4481.34" gradientUnits="userSpaceOnUse">
<stop stop-color="#AEECDB"/>
<stop offset="0.527533" stop-color="#DAF9E9"/>
<stop offset="0.98" stop-color="#AEECDB"/>
</linearGradient>
<clipPath id="clip0_33_2">
<rect width="1920" height="4369" fill="white"/>
</clipPath>
<clipPath id="clip1_33_2">
<rect width="1020" height="956" fill="white" transform="translate(-403 -427)"/>
</clipPath>
<clipPath id="clip2_33_2">
<rect width="549" height="601.219" fill="white" transform="translate(1476 1935)"/>
</clipPath>
<clipPath id="clip3_33_2">
<rect width="847" height="848" fill="white" transform="translate(1250 -87)"/>
</clipPath>
<clipPath id="clip4_33_2">
<rect width="731" height="814" fill="white" transform="translate(-44 857)"/>
</clipPath>
<clipPath id="clip5_33_2">
<rect width="768" height="764" fill="white" transform="translate(-44 2704)"/>
</clipPath>
</defs>
</svg>
