<svg width="80" height="80" viewBox="0 0 80 80" fill="none" xmlns="http://www.w3.org/2000/svg">
<path d="M72.702 64.87L51 72.542V7.88L72.702 12.484V64.87Z" fill="#04382E"/>
<path d="M27.254 58.506L43.5 40.624C43.982 40.142 44.258 39.464 44.258 38.756C44.258 38.048 43.982 37.37 43.5 36.888L27.254 19.002C26.562 18.306 25.548 18.122 24.682 18.526C23.81 18.932 23.248 19.85 23.248 20.868V27.254H7.75798C6.44198 27.254 5.37598 28.398 5.37598 29.808V47.694C5.37598 49.104 6.44198 50.246 7.75798 50.246H23.248V56.634C23.248 57.652 23.81 58.572 24.68 58.978C25.548 59.386 26.56 59.202 27.254 58.506Z" fill="#04382E"/>
<path d="M27.254 58.506L43.5 40.624C43.982 40.142 44.258 39.464 44.258 38.756C44.258 38.048 43.982 37.37 43.5 36.888L27.254 19.002C26.562 18.306 25.548 18.122 24.682 18.526C23.81 18.932 23.248 19.85 23.248 20.868V27.254H7.75798C6.44198 27.254 5.37598 28.398 5.37598 29.808V47.694C5.37598 49.104 6.44198 50.246 7.75798 50.246H23.248V56.634C23.248 57.652 23.81 58.572 24.68 58.978C25.548 59.386 26.56 59.202 27.254 58.506Z" fill="#04382E"/>
<path d="M48.3321 12.448H45.7561C42.1961 12.448 39.3101 15.332 39.3101 18.894V26.856" stroke="#04382E" stroke-miterlimit="10" stroke-linecap="round" stroke-linejoin="round"/>
<path d="M39.3101 50.99V58.456C39.3101 62.016 42.1941 64.902 45.7561 64.902H48.3321" stroke="#04382E" stroke-miterlimit="10" stroke-linecap="round" stroke-linejoin="round"/>
</svg>
