<svg width="60" height="60" viewBox="0 0 60 60" fill="none" xmlns="http://www.w3.org/2000/svg">
<g clip-path="url(#clip0_37_698)">
<path d="M30 59.4375C46.2579 59.4375 59.4375 46.2579 59.4375 30C59.4375 13.7421 46.2579 0.5625 30 0.5625C13.7421 0.5625 0.5625 13.7421 0.5625 30C0.5625 46.2579 13.7421 59.4375 30 59.4375Z" fill="white"/>
<path d="M29.7188 57.1875C44.734 57.1875 56.9062 45.0152 56.9062 30C56.9062 14.9848 44.734 2.8125 29.7188 2.8125C14.7035 2.8125 2.53125 14.9848 2.53125 30C2.53125 45.0152 14.7035 57.1875 29.7188 57.1875Z" fill="white"/>
<path d="M29.625 56.3438C44.1743 56.3438 55.9688 44.5493 55.9688 30C55.9688 15.4507 44.1743 3.65625 29.625 3.65625C15.0757 3.65625 3.28125 15.4507 3.28125 30C3.28125 44.5493 15.0757 56.3438 29.625 56.3438Z" fill="#04382E"/>
<path d="M31.125 23.7188H28.875C27.3217 23.7188 26.0625 24.9779 26.0625 26.5312V46.4062C26.0625 47.9596 27.3217 49.2188 28.875 49.2188H31.125C32.6783 49.2188 33.9375 47.9596 33.9375 46.4062V26.5312C33.9375 24.9779 32.6783 23.7188 31.125 23.7188Z" fill="white"/>
<path d="M31.125 12.6562H28.875C27.3217 12.6562 26.0625 13.9154 26.0625 15.4688V17.1562C26.0625 18.7096 27.3217 19.9688 28.875 19.9688H31.125C32.6783 19.9688 33.9375 18.7096 33.9375 17.1562V15.4688C33.9375 13.9154 32.6783 12.6562 31.125 12.6562Z" fill="white"/>
</g>
<defs>
<clipPath id="clip0_37_698">
<rect width="60" height="60" fill="white"/>
</clipPath>
</defs>
</svg>
