<svg width="100" height="100" viewBox="0 0 100 100" fill="none" xmlns="http://www.w3.org/2000/svg">
<mask id="mask0_17_1717" style="mask-type:luminance" maskUnits="userSpaceOnUse" x="0" y="0" width="100" height="100">
<path d="M0 0H100V100H0V0Z" fill="white"/>
</mask>
<g mask="url(#mask0_17_1717)">
<path d="M21.8785 18.1187L24.7356 77.3932" stroke="#04382E" stroke-width="0.3474"/>
<path d="M78.507 20.3605C57.582 34.9065 39.6193 47.5792 35.0475 50.8092L34.4005 51.2652C34.4005 51.2652 57.8845 73.055 78.5072 92.1897V90.5532C58.801 72.2685 36.9435 51.9882 36.3115 51.402C49.2173 42.2872 63.8923 31.9989 78.5072 21.8447L78.507 20.3605Z" fill="#04382E"/>
<path d="M35.3982 73.0279C24.6807 73.0279 15.9632 64.3095 15.9632 53.5929C15.9632 42.8762 24.6807 34.157 35.3984 34.157C46.114 34.157 54.833 42.8762 54.833 53.5929C54.833 64.3095 46.114 73.0279 35.3982 73.0279ZM35.3982 74.3684C46.8529 74.3684 56.1734 65.0484 56.1734 53.5929C56.1734 42.1365 46.8529 32.817 35.3984 32.817C23.9417 32.817 14.623 42.1365 14.623 53.5929C14.623 65.0484 23.9417 74.3684 35.3982 74.3684Z" fill="#04382E"/>
<mask id="mask1_17_1717" style="mask-type:luminance" maskUnits="userSpaceOnUse" x="56" y="72" width="26" height="26">
<path d="M56.5842 72.3857H81.4519V97.2531H56.5842V72.3857Z" fill="white"/>
</mask>
<g mask="url(#mask1_17_1717)">
<path d="M69.0186 72.3859C62.1509 72.3859 56.5842 77.9534 56.5842 84.8201C56.5842 91.6879 62.1511 97.2534 69.0186 97.2534C75.8852 97.2534 81.4519 91.6879 81.4519 84.8201C81.4519 77.9534 75.8852 72.3859 69.0186 72.3859Z" fill="#04382E"/>
</g>
<path d="M69.0185 96.8394C62.3907 96.8394 56.9993 91.4469 56.999 84.8198C56.999 78.1917 62.3907 72.7999 69.0185 72.7999C75.6457 72.7999 81.038 78.1917 81.038 84.8198C81.0382 91.4469 75.6457 96.8394 69.0185 96.8394ZM69.0185 97.6684C76.1027 97.6684 81.867 91.9042 81.8667 84.8198C81.8667 77.7349 76.1025 71.971 69.0185 71.971C61.9335 71.971 56.1702 77.7349 56.1702 84.8198C56.1703 91.9042 61.9337 97.6684 69.0185 97.6684Z" fill="#04382E"/>
<mask id="mask2_17_1717" style="mask-type:luminance" maskUnits="userSpaceOnUse" x="4" y="15" width="14" height="14">
<path d="M4.08508 15.25H17.4639V28.6285H4.08508V15.25Z" fill="white"/>
</mask>
<g mask="url(#mask2_17_1717)">
<path d="M10.7746 15.25C7.07979 15.25 4.08496 18.2452 4.08496 21.9395C4.08496 25.6343 7.07996 28.6285 10.7746 28.6285C14.469 28.6285 17.4638 25.6343 17.4638 21.9395C17.4638 18.2452 14.469 15.25 10.7746 15.25Z" fill="#04382E"/>
</g>
<path d="M10.7747 28.406C7.20887 28.406 4.30837 25.5047 4.30837 21.9395C4.30837 18.3734 7.20887 15.4727 10.7747 15.4727C14.3402 15.4727 17.2412 18.3734 17.2412 21.9395C17.2414 25.5047 14.3402 28.406 10.7747 28.406ZM10.7747 28.8519C14.586 28.8519 17.6872 25.7507 17.6872 21.9395C17.6872 18.1277 14.5859 15.0267 10.7747 15.0267C6.96303 15.0267 3.86237 18.1277 3.86237 21.9395C3.86253 25.7509 6.96303 28.8519 10.7747 28.8519Z" fill="#04382E"/>
<mask id="mask3_17_1717" style="mask-type:luminance" maskUnits="userSpaceOnUse" x="73" y="4" width="26" height="25">
<path d="M73.1793 4.04234H98.047V28.9097H73.1793V4.04234Z" fill="white"/>
</mask>
<g mask="url(#mask3_17_1717)">
<path d="M85.6138 4.04234C78.7462 4.04234 73.1793 9.60983 73.1793 16.4763C73.1793 23.3442 78.7463 28.9097 85.6138 28.9097C92.4805 28.9097 98.047 23.3442 98.047 16.4763C98.047 9.60983 92.4805 4.04234 85.6138 4.04234Z" fill="#04382E"/>
</g>
<path d="M85.6138 28.496C78.9857 28.496 73.5945 23.1035 73.5943 16.4763C73.5943 9.84818 78.9857 4.45634 85.6138 4.45634C92.241 4.45634 97.6332 9.84818 97.6332 16.4763C97.6333 23.1035 92.241 28.496 85.6138 28.496ZM85.6138 29.3248C92.6978 29.3248 98.4622 23.5607 98.4618 16.4763C98.4618 9.39151 92.6977 3.62751 85.6138 3.62751C78.5287 3.62751 72.7655 9.39151 72.7655 16.4763C72.7657 23.5607 78.529 29.3248 85.6138 29.3248Z" fill="#04382E"/>
<path d="M13.8848 26.414L25.0508 36.4913L25.7843 35.6788L14.6182 25.6013L13.8848 26.414Z" fill="#04382E"/>
<mask id="mask4_17_1717" style="mask-type:luminance" maskUnits="userSpaceOnUse" x="20" y="77" width="9" height="8">
<path d="M20.9822 77.2648H28.5456V84.828H20.9822V77.2648Z" fill="white"/>
</mask>
<g mask="url(#mask4_17_1717)">
<path d="M26.8383 84.2078C28.5844 83.0621 29.0711 80.7178 27.9256 78.972C26.7799 77.2256 24.4359 76.7395 22.6899 77.8851C20.9439 79.0306 20.4569 81.3745 21.6028 83.1208C22.7483 84.8663 25.0924 85.3535 26.8383 84.2078Z" fill="#04382E"/>
</g>
<path d="M22.7587 77.9903C24.4438 76.8845 26.7143 77.3562 27.8198 79.0412C28.9255 80.7265 28.4542 82.9968 26.769 84.1027C25.0838 85.2083 22.8135 84.7368 21.7077 83.0518C20.602 81.3667 21.0733 79.096 22.7587 77.9903ZM22.6203 77.7797C20.8192 78.9615 20.3152 81.3885 21.497 83.1898C22.6788 84.9912 25.1063 85.4952 26.9073 84.3132C28.7088 83.1312 29.2127 80.7045 28.0305 78.903C26.8488 77.1018 24.4217 76.5975 22.6203 77.7797Z" fill="#04382E"/>
<path d="M21.9065 80.282L13.5045 78.982L13.4099 79.5937L21.8119 80.8935L21.9065 80.282Z" fill="#04382E"/>
<mask id="mask5_17_1717" style="mask-type:luminance" maskUnits="userSpaceOnUse" x="17" y="5" width="9" height="8">
<path d="M17.4825 5.19736H25.0447V12.7597H17.4825V5.19736Z" fill="white"/>
</mask>
<g mask="url(#mask5_17_1717)">
<path d="M25.0445 9.02008C25.0675 6.93192 23.3932 5.22025 21.3053 5.19725C19.2168 5.17425 17.5057 6.84858 17.4827 8.93658C17.4597 11.0247 19.1333 12.7363 21.2218 12.7591C23.3097 12.7823 25.0213 11.1082 25.0445 9.02008Z" fill="#04382E"/>
</g>
<path d="M17.6085 8.93836C17.6307 6.92286 19.2885 5.30152 21.3038 5.32369C23.3195 5.34602 24.9408 7.00368 24.9185 9.01885C24.8963 11.0344 23.2387 12.656 21.2232 12.6337C19.208 12.6115 17.5862 10.9537 17.6085 8.93836ZM17.3565 8.93569C17.3327 11.0899 19.0662 12.8619 21.2202 12.8855C23.3747 12.9095 25.1468 11.1757 25.1703 9.02185C25.1943 6.86718 23.4612 5.09553 21.3065 5.07186C19.1523 5.04803 17.3802 6.78119 17.3565 8.93569Z" fill="#04382E"/>
<path d="M19.2941 10.9015L13.5286 17.15L13.9834 17.5695L19.7487 11.3212L19.2941 10.9015Z" fill="#04382E"/>
<mask id="mask6_17_1717" style="mask-type:luminance" maskUnits="userSpaceOnUse" x="90" y="57" width="5" height="5">
<path d="M90.6008 57.3965H94.4902V61.2858H90.6008V57.3965Z" fill="white"/>
</mask>
<g mask="url(#mask6_17_1717)">
<path d="M94.4452 59.7563C94.6745 58.7072 94.0104 57.6708 92.9614 57.4413C91.9122 57.2117 90.876 57.8762 90.6464 58.9253C90.417 59.974 91.0812 61.0107 92.13 61.2398C93.1789 61.4695 94.2155 60.8052 94.4452 59.7563Z" fill="#04382E"/>
</g>
<path d="M90.7097 58.9395C90.9312 57.927 91.9349 57.2837 92.9474 57.5052C93.9599 57.7269 94.6032 58.7307 94.3815 59.743C94.1602 60.7554 93.1564 61.3989 92.1439 61.1774C91.1315 60.956 90.488 59.9519 90.7097 58.9395ZM90.5829 58.912C90.3464 59.9942 91.0342 61.0672 92.1162 61.3037C93.1984 61.5407 94.2715 60.8527 94.5084 59.7707C94.7449 58.6884 94.057 57.6154 92.9749 57.3785C91.8927 57.1417 90.8197 57.8295 90.5829 58.912Z" fill="#04382E"/>
<path d="M91.3531 60.1038L87.7983 62.6483L87.9834 62.907L91.5383 60.3627L91.3531 60.1038Z" fill="#04382E"/>
<mask id="mask7_17_1717" style="mask-type:luminance" maskUnits="userSpaceOnUse" x="76" y="55" width="5" height="5">
<path d="M76.7515 55.7615H80.6402V59.6503H76.7515V55.7615Z" fill="white"/>
</mask>
<g mask="url(#mask7_17_1717)">
<path d="M78.8814 55.771C77.8126 55.6682 76.8629 56.4515 76.7601 57.5204C76.6571 58.5894 77.4404 59.5387 78.5092 59.6417C79.5781 59.7445 80.5281 58.9615 80.6306 57.8925C80.7332 56.8235 79.9502 55.8737 78.8814 55.771Z" fill="#04382E"/>
</g>
<path d="M78.516 59.5767C77.484 59.4773 76.7257 58.5578 76.8252 57.5258C76.9243 56.4943 77.844 55.736 78.8757 55.8352C79.907 55.9343 80.6658 56.8542 80.5665 57.8855C80.4678 58.9173 79.5473 59.6762 78.516 59.5767ZM78.5037 59.7057C79.6065 59.8118 80.5895 59.0008 80.6955 57.8983C80.8018 56.7952 79.9907 55.8122 78.8882 55.7063C77.7853 55.6002 76.8018 56.4108 76.6958 57.5138C76.5898 58.6165 77.4007 59.5998 78.5037 59.7057Z" fill="#04382E"/>
<path d="M79.5952 58.7989L82.5453 62.0249L82.7802 61.81L79.83 58.5842L79.5952 58.7989Z" fill="#04382E"/>
<mask id="mask8_17_1717" style="mask-type:luminance" maskUnits="userSpaceOnUse" x="21" y="87" width="5" height="5">
<path d="M21.7762 87.718H25.665V91.6068H21.7762V87.718Z" fill="white"/>
</mask>
<g mask="url(#mask8_17_1717)">
<path d="M22.1302 90.7815C22.7482 91.6597 23.9611 91.8705 24.8391 91.2527C25.7176 90.6347 25.9282 89.4217 25.3102 88.544C24.6922 87.6657 23.4794 87.4545 22.6014 88.0725C21.7232 88.6907 21.5122 89.9033 22.1302 90.7815Z" fill="#04382E"/>
</g>
<path d="M25.2574 88.5809C25.8539 89.4287 25.6498 90.6029 24.8021 91.1995C23.9543 91.796 22.7799 91.5919 22.1838 90.7442C21.5874 89.8967 21.7913 88.7219 22.6388 88.1254C23.4863 87.529 24.6614 87.7332 25.2574 88.5809ZM25.3634 88.5062C24.7258 87.6004 23.4703 87.3822 22.5646 88.0195C21.6583 88.6572 21.4401 89.913 22.0776 90.8187C22.7153 91.7249 23.9709 91.9432 24.8771 91.3055C25.7829 90.668 26.0011 89.4125 25.3634 88.5062Z" fill="#04382E"/>
<path d="M23.9645 88.2682L24.492 83.9285L24.1763 83.8902L23.6486 88.2297L23.9645 88.2682Z" fill="#04382E"/>
<mask id="mask9_17_1717" style="mask-type:luminance" maskUnits="userSpaceOnUse" x="19" y="16" width="5" height="5">
<path d="M19.9342 16.1744H23.823V20.0632H19.9342V16.1744Z" fill="white"/>
</mask>
<g mask="url(#mask9_17_1717)">
<path d="M20.2884 19.2379C20.9062 20.1159 22.1192 20.3267 22.9972 19.7089C23.8757 19.0909 24.0864 17.878 23.4685 17C22.8504 16.1219 21.6375 15.9107 20.7595 16.5287C19.8814 17.1467 19.6704 18.3595 20.2884 19.2379Z" fill="#04382E"/>
</g>
<path d="M23.4153 17.0372C24.0118 17.885 23.8077 19.0592 22.96 19.6559C22.1122 20.2524 20.9378 20.048 20.3415 19.2005C19.7453 18.353 19.9492 17.1782 20.7967 16.5817C21.644 15.9854 22.8192 16.1895 23.4153 17.0372ZM23.5213 16.9625C22.8837 16.0565 21.6282 15.8385 20.7223 16.4759C19.816 17.1137 19.5978 18.369 20.2355 19.2749C20.873 20.181 22.1287 20.3994 23.0348 19.762C23.9408 19.1244 24.159 17.8687 23.5213 16.9625Z" fill="#04382E"/>
<path d="M22.1222 16.7247L22.6497 12.385L22.334 12.3465L21.8063 16.6858L22.1222 16.7247Z" fill="#04382E"/>
<mask id="mask10_17_1717" style="mask-type:luminance" maskUnits="userSpaceOnUse" x="79" y="60" width="12" height="11">
<path d="M79.9662 60.4763H90.0465V70.557H79.9662V60.4763Z" fill="white"/>
</mask>
<g mask="url(#mask10_17_1717)">
<path d="M90.0463 65.5726C90.0768 62.7889 87.8451 60.5074 85.0618 60.4766C82.278 60.4461 79.9971 62.6779 79.9666 65.4612C79.9358 68.2447 82.1668 70.5262 84.9506 70.5566C87.734 70.5874 90.0156 68.3562 90.0463 65.5726Z" fill="#04382E"/>
</g>
<path d="M80.1345 65.4634C80.1636 62.7765 82.3736 60.6149 85.06 60.6447C87.7468 60.675 89.9083 62.8844 89.8785 65.5707C89.8488 68.2572 87.6393 70.4189 84.9528 70.389C82.2665 70.3595 80.1045 68.1497 80.1345 65.4634ZM79.7983 65.4597C79.7668 68.3312 82.0775 70.693 84.9486 70.725C87.8206 70.7569 90.183 68.4459 90.2141 65.5744C90.2465 62.7025 87.9356 60.3407 85.0638 60.309C82.1923 60.2772 79.83 62.5877 79.7983 65.4597Z" fill="#04382E"/>
<path d="M82.7674 68.016L75.0819 76.3452L75.6881 76.9044L83.3734 68.5752L82.7674 68.016Z" fill="#04382E"/>
<mask id="mask11_17_1717" style="mask-type:luminance" maskUnits="userSpaceOnUse" x="3" y="73" width="15" height="14">
<path d="M3.93677 73.0364H17.3163V86.416H3.93677V73.0364Z" fill="white"/>
</mask>
<g mask="url(#mask11_17_1717)">
<path d="M3.96148 79.1509C3.64398 82.8322 6.37081 86.0736 10.0513 86.3912C13.7325 86.7086 16.9731 83.9822 17.2908 80.3012C17.6083 76.6204 14.8825 73.3792 11.2013 73.0617C7.52081 72.7442 4.27915 75.4706 3.96148 79.1509Z" fill="#04382E"/>
</g>
<path d="M17.0694 80.2817C16.7629 83.8347 13.6231 86.4748 10.0711 86.1683C6.51809 85.8618 3.87759 82.7228 4.18409 79.1702C4.49043 75.6178 7.62976 72.9768 11.1826 73.2832C14.7348 73.5897 17.3759 76.7297 17.0694 80.2817ZM17.5138 80.3198C17.8413 76.523 15.0181 73.1665 11.2209 72.839C7.42343 72.5115 4.06709 75.3347 3.73959 79.1317C3.41209 82.9293 6.23509 86.2852 10.0326 86.6127C13.8299 86.9403 17.1859 84.1175 17.5138 80.3198Z" fill="#04382E"/>
<path d="M14.6055 76.4308L15.1735 77.012L23.5422 69.5647L22.9742 68.9833L14.6055 76.4308Z" fill="#04382E"/>
<path d="M22.3615 19.0573L77.3833 56.3633" stroke="#04382E" stroke-width="0.3474"/>
<path d="M78.6959 57.7059L23.7207 89.6626" stroke="#04382E" stroke-width="0.3474"/>
<path d="M84.8292 62.3872L85.6139 23.1953" stroke="#04382E" stroke-width="0.3474"/>
<path d="M9.4917 26.414L9.89787 76.8048" stroke="#04382E" stroke-width="0.3474"/>
<path d="M13.1467 22.1802L80.9709 15.0729" stroke="#04382E" stroke-width="0.3474"/>
<path d="M25.7369 80.0538L59.0395 87.3643" stroke="#04382E" stroke-width="0.3474"/>
<path d="M68.6851 77.7185L80.1585 23.3985" stroke="#04382E" stroke-width="0.3474"/>
<path d="M21.2635 8.97853L77.9248 10.6054" stroke="#04382E" stroke-width="0.3474"/>
<path d="M26.3461 82.4907L83.4075 65.4633" stroke="#04382E" stroke-width="0.3474"/>
</g>
</svg>
