<svg width="80" height="68" viewBox="0 0 80 68" fill="none" xmlns="http://www.w3.org/2000/svg">
<path d="M3.9863 0.78006C2.94163 1.05498 1.82823 1.85223 1.20967 2.75945C0.219981 4.21649 0.274964 2.86941 0.274964 25.5086C0.274964 48.1478 0.219981 46.8007 1.20967 48.2577C1.49833 48.6838 2.04816 49.2337 2.47428 49.5223C3.91758 50.4983 2.91414 50.457 22.2956 50.457H39.7251V50.8694C39.7251 51.1031 39.8488 51.8316 40 52.4914C40.4262 54.4021 41.0585 55.9553 42.1719 57.811C43.0928 59.3643 43.3128 59.6529 44.7011 61.11C46.2268 62.732 48.1375 64.134 50.1856 65.1375C53.2509 66.6495 55.5052 67.2131 59.0378 67.323C61.0447 67.3918 61.622 67.3505 63.1478 67.0894C71.7939 65.6186 78.2543 59.378 79.5327 51.2406C79.9451 48.6426 79.6564 45.2474 78.7767 42.7457C78.3918 41.6323 77.3471 39.5979 76.5774 38.457C74.5155 35.4192 71.1753 32.7938 67.4914 31.2818C66.2268 30.7732 63.8076 30.1684 62.2406 29.9759L60.8935 29.811V17.4811C60.8935 3.74913 60.921 4.17525 59.9588 2.75945C59.3265 1.82474 58.2131 1.05498 57.1134 0.766319C55.9176 0.463913 5.15469 0.463913 3.9863 0.78006ZM54.8866 4.47766C54.7492 4.65635 49.3196 11.1443 42.8179 18.8832C33.7458 29.6873 30.9554 32.9313 30.8179 32.8213C30.7217 32.7388 28.921 30.6357 26.8317 28.1478C24.7423 25.646 22.0069 22.4021 20.7698 20.9175C19.5189 19.433 16.5499 15.9003 14.1719 13.0687C8.86603 6.75945 7.13407 4.68385 6.88665 4.36769C6.70795 4.14776 7.90383 4.13401 30.9279 4.13401H55.1478L54.8866 4.47766ZM13.5396 16.4777C18.8866 22.8557 23.2303 28.0928 23.2165 28.1203C18.9141 32.1478 3.34026 46.4708 3.27153 46.4708C3.2028 46.4708 3.09283 46.3058 3.0241 46.1134C2.92788 45.8797 2.90039 38.5395 2.91414 25.3162C2.95538 7.90034 2.98287 4.83504 3.14782 4.62886C3.34026 4.40893 3.354 4.40893 3.57393 4.64261C3.71139 4.78006 8.19249 10.0997 13.5396 16.4777ZM58.2818 17.3849V29.646L56.3987 29.9622C52.5636 30.5808 49.2509 32.0378 46.4468 34.3196C45.9519 34.732 45.4983 35.0619 45.4433 35.0619C45.3884 35.0619 43.8076 33.6598 41.9519 31.9416C40.0825 30.2371 38.4743 28.7663 38.3781 28.6701C38.2131 28.5189 39.5464 26.9107 55.2165 8.28522C56.7561 6.45704 58.0756 4.98625 58.1581 5.02748C58.2268 5.08247 58.2818 9.83849 58.2818 17.3849ZM27.3265 32.9038C30.2681 36.4089 30.2956 36.4364 30.8729 36.4364C31.5327 36.4364 31.9038 36.2165 32.3712 35.5704C32.9897 34.7045 36.4537 30.5945 36.5636 30.5945C36.6186 30.5945 38.2406 32.0515 40.1787 33.8247L43.6976 37.055L43.3815 37.3986C42.4193 38.4158 40.921 41.2199 40.3025 43.1718C39.9038 44.4502 39.4502 46.6907 39.4502 47.4605V47.8454H22.7629C13.5808 47.8454 6.03441 47.8041 5.99318 47.7354C5.93819 47.6392 24.7011 30.1409 24.8935 30.1271C24.9348 30.1134 26.0344 31.3643 27.3265 32.9038ZM62.7492 32.8076C69.2646 33.811 74.9004 38.6907 76.4949 44.7113C78.1169 50.8282 75.8351 57.0825 70.543 61.0687C64.2337 65.8247 55.1066 65.8385 48.811 61.11C44.275 57.6873 41.9107 52.6426 42.3506 47.2955C42.9966 39.5842 49.7732 33.2749 58.1444 32.6014C59.7251 32.4777 60.921 32.5326 62.7492 32.8076Z" fill="#04382E"/>
<path d="M58.708 36.3952C58.1582 36.6701 57.8695 37.2749 57.8695 38.1272C57.8695 38.8419 57.7733 38.9244 56.7973 39.2543C54.8867 39.8729 53.3747 41.4811 52.5362 43.7766C52.1925 44.7251 52.1788 44.8488 52.1238 49.0275L52.0826 53.3024L50.7767 54.5945C49.5533 55.8179 49.4846 55.9141 49.4846 56.4639V57.055H59.5877H69.6908V56.4639C69.6908 55.9141 69.6221 55.8179 68.3987 54.5945L67.0929 53.3024L67.0516 49.0275C66.9966 44.8488 66.9829 44.7251 66.6393 43.7904C65.7733 41.4261 64.33 39.8866 62.3781 39.2543C61.3884 38.9244 61.3059 38.8419 61.3059 38.0584C61.3059 37.1924 60.9898 36.6014 60.4125 36.354C59.7939 36.1065 59.2853 36.1203 58.708 36.3952Z" fill="#04382E"/>
<path d="M57.2647 59.0069C57.4159 59.5155 57.6908 59.9966 57.9657 60.244C58.3231 60.5739 59.1616 60.9038 59.6152 60.9038C60.5636 60.89 61.7045 59.9966 61.9245 59.0756L62.0207 58.7045H59.5877H57.1685L57.2647 59.0069Z" fill="#04382E"/>
</svg>
