<svg width="80" height="80" viewBox="0 0 80 80" fill="none" xmlns="http://www.w3.org/2000/svg">
<path d="M3.9863 7.78006C2.94163 8.05498 1.82823 8.85223 1.20967 9.75945C0.219981 11.2165 0.274964 9.86941 0.274964 32.5086C0.274964 55.1478 0.219981 53.8007 1.20967 55.2577C1.49833 55.6838 2.04816 56.2337 2.47428 56.5223C3.91758 57.4983 2.91414 57.457 22.2956 57.457H39.7251V57.8694C39.7251 58.1031 39.8488 58.8316 40 59.4914C40.4262 61.4021 41.0585 62.9553 42.1719 64.811C43.0928 66.3643 43.3128 66.6529 44.7011 68.11C46.2268 69.732 48.1375 71.134 50.1856 72.1375C53.2509 73.6495 55.5052 74.2131 59.0378 74.323C61.0447 74.3918 61.622 74.3505 63.1478 74.0894C71.7939 72.6186 78.2543 66.378 79.5327 58.2406C79.9451 55.6426 79.6564 52.2474 78.7767 49.7457C78.3918 48.6323 77.3471 46.5979 76.5774 45.457C74.5155 42.4192 71.1753 39.7938 67.4914 38.2818C66.2268 37.7732 63.8076 37.1684 62.2406 36.9759L60.8935 36.811V24.4811C60.8935 10.7491 60.921 11.1753 59.9588 9.75945C59.3265 8.82474 58.2131 8.05498 57.1134 7.76632C55.9176 7.46391 5.15469 7.46391 3.9863 7.78006ZM54.8866 11.4777C54.7492 11.6564 49.3196 18.1443 42.8179 25.8832C33.7458 36.6873 30.9554 39.9313 30.8179 39.8213C30.7217 39.7388 28.921 37.6357 26.8317 35.1478C24.7423 32.646 22.0069 29.4021 20.7698 27.9175C19.5189 26.433 16.5499 22.9003 14.1719 20.0687C8.86603 13.7594 7.13407 11.6838 6.88665 11.3677C6.70795 11.1478 7.90383 11.134 30.9279 11.134H55.1478L54.8866 11.4777ZM13.5396 23.4777C18.8866 29.8557 23.2303 35.0928 23.2165 35.1203C18.9141 39.1478 3.34026 53.4708 3.27153 53.4708C3.2028 53.4708 3.09283 53.3058 3.0241 53.1134C2.92788 52.8797 2.90039 45.5395 2.91414 32.3162C2.95538 14.9003 2.98287 11.835 3.14782 11.6289C3.34026 11.4089 3.354 11.4089 3.57393 11.6426C3.71139 11.7801 8.19249 17.0997 13.5396 23.4777ZM58.2818 24.3849V36.646L56.3987 36.9622C52.5636 37.5808 49.2509 39.0378 46.4468 41.3196C45.9519 41.732 45.4983 42.0619 45.4433 42.0619C45.3884 42.0619 43.8076 40.6598 41.9519 38.9416C40.0825 37.2371 38.4743 35.7663 38.3781 35.6701C38.2131 35.5189 39.5464 33.9107 55.2165 15.2852C56.7561 13.457 58.0756 11.9862 58.1581 12.0275C58.2268 12.0825 58.2818 16.8385 58.2818 24.3849ZM27.3265 39.9038C30.2681 43.4089 30.2956 43.4364 30.8729 43.4364C31.5327 43.4364 31.9038 43.2165 32.3712 42.5704C32.9897 41.7045 36.4537 37.5945 36.5636 37.5945C36.6186 37.5945 38.2406 39.0515 40.1787 40.8247L43.6976 44.055L43.3815 44.3986C42.4193 45.4158 40.921 48.2199 40.3025 50.1718C39.9038 51.4502 39.4502 53.6907 39.4502 54.4605V54.8454H22.7629C13.5808 54.8454 6.03441 54.8041 5.99318 54.7354C5.93819 54.6392 24.7011 37.1409 24.8935 37.1271C24.9348 37.1134 26.0344 38.3643 27.3265 39.9038ZM62.7492 39.8076C69.2646 40.811 74.9004 45.6907 76.4949 51.7113C78.1169 57.8282 75.8351 64.0825 70.543 68.0687C64.2337 72.8247 55.1066 72.8385 48.811 68.11C44.275 64.6873 41.9107 59.6426 42.3506 54.2955C42.9966 46.5842 49.7732 40.2749 58.1444 39.6014C59.7251 39.4777 60.921 39.5326 62.7492 39.8076Z" fill="#FF0000"/>
<path d="M58.7077 43.3952C58.1579 43.6701 57.8693 44.2749 57.8693 45.1272C57.8693 45.8419 57.773 45.9244 56.7971 46.2543C54.8864 46.8729 53.3744 48.4811 52.5359 50.7766C52.1923 51.7251 52.1785 51.8488 52.1236 56.0275L52.0823 60.3024L50.7765 61.5945C49.5531 62.8179 49.4844 62.9141 49.4844 63.4639V64.055H59.5875H69.6906V63.4639C69.6906 62.9141 69.6218 62.8179 68.3985 61.5945L67.0926 60.3024L67.0514 56.0275C66.9964 51.8488 66.9827 51.7251 66.639 50.7904C65.773 48.4261 64.3297 46.8866 62.3778 46.2543C61.3882 45.9244 61.3057 45.8419 61.3057 45.0584C61.3057 44.1924 60.9895 43.6014 60.4122 43.354C59.7937 43.1065 59.2851 43.1203 58.7077 43.3952Z" fill="#FF0000"/>
<path d="M57.2647 66.0069C57.4159 66.5155 57.6908 66.9966 57.9657 67.244C58.3231 67.5739 59.1616 67.9038 59.6152 67.9038C60.5636 67.89 61.7045 66.9966 61.9245 66.0756L62.0207 65.7045H59.5877H57.1685L57.2647 66.0069Z" fill="#FF0000"/>
</svg>
