<svg width="85" height="73" viewBox="0 0 85 73" fill="none" xmlns="http://www.w3.org/2000/svg">
<g clip-path="url(#clip0_28_4971)">
<path d="M27.2098 42.6793C27.2098 58.0133 39.6406 70.4441 54.9746 70.4441C70.3085 70.4441 82.7393 58.0133 82.7393 42.6793C82.7393 27.3454 70.3085 14.9146 54.9746 14.9146C39.6406 14.9146 27.2098 27.3454 27.2098 42.6793Z" stroke="#7BC0AD" stroke-width="4.51573" stroke-linecap="round" stroke-linejoin="round"/>
<path d="M54.334 15.8611V69.2852" stroke="#7BC0AD" stroke-width="2.25786"/>
<path d="M54.334 15.6487C54.334 15.6487 68.9241 14.9414 68.9241 43.5417C68.9241 69.0745 54.334 69.7181 54.334 69.7181C54.334 69.7181 39.6343 70.3398 39.5294 43.1127C39.4244 15.8853 54.334 15.6487 54.334 15.6487Z" stroke="#7BC0AD" stroke-width="2.25786" stroke-linecap="round"/>
<path d="M82.2268 44.026C82.2265 44.0541 82.2268 44.0874 82.2268 44.0874C82.2268 44.0874 81.9875 52.7153 54.7603 52.6546C27.533 52.5938 28.1566 44.0874 28.1566 44.0874C28.1566 44.0874 28.1659 44.0543 28.1699 44.026" stroke="#7BC0AD" stroke-width="2.25786" stroke-linecap="round"/>
<path d="M27.152 42.7303C27.152 58.0643 39.5828 70.495 54.9167 70.495C70.2506 70.495 82.6814 58.0643 82.6814 42.7303C82.6814 27.3964 70.2506 14.9656 54.9167 14.9656C39.5828 14.9656 27.152 27.3964 27.152 42.7303Z" stroke="#7BC0AD" stroke-width="4.51573" stroke-linecap="round" stroke-linejoin="round"/>
<path d="M16.2672 30.02C16.2672 45.3539 28.698 57.7847 44.0319 57.7847C59.3659 57.7847 71.7966 45.3539 71.7966 30.02C71.7966 14.6861 59.3659 2.25531 44.0319 2.25531C28.698 2.25531 16.2672 14.6861 16.2672 30.02Z" stroke="#04382E" stroke-width="4.51573" stroke-linecap="round" stroke-linejoin="round"/>
<path d="M22.5798 51.2605L4.55685 67.5672" stroke="#04382E" stroke-width="9.03145" stroke-linecap="round"/>
</g>
<defs>
<clipPath id="clip0_28_4971">
<rect width="85.0002" height="72.7529" fill="white" transform="matrix(-1 0 0 1 85 0)"/>
</clipPath>
</defs>
</svg>
