<svg width="137" height="138" viewBox="0 0 137 138" fill="none" xmlns="http://www.w3.org/2000/svg">
<path d="M70.7591 128.526C70.3608 128.042 69.5065 125.821 68.8607 123.592C68.215 121.363 67.1546 119.266 66.5043 118.932C65.8541 118.599 63.4781 118.145 61.2245 117.924C56.726 117.482 57.0001 117.317 53.0124 122.89C50.4289 126.501 48.6154 126.725 43.325 124.089C37.8617 121.366 37.6922 120.995 39.2127 115.093L40.5077 110.066L36.7522 106.702C34.6866 104.852 32.6129 103.339 32.1439 103.339C31.675 103.339 29.5953 104.128 27.5224 105.093C25.4495 106.058 23.3421 106.851 22.8392 106.854C21.488 106.865 18.5608 103.456 16.5924 99.5801C14.9932 96.4311 14.9445 96.0491 15.9469 94.5191C16.5433 93.6088 18.135 92.0222 19.4841 90.9933C20.8332 89.9643 22.1108 88.5746 22.3233 87.905C22.7925 86.4267 20.2 78.6089 18.9933 77.8631C18.5181 77.5694 16.4748 77.1224 14.4528 76.8697C8.72514 76.1541 8.25342 75.5412 8.25342 68.8156C8.25342 62.0899 8.72514 61.477 14.4528 60.7614C16.4748 60.5088 18.5181 60.0618 18.9933 59.7681C19.7718 59.2869 22.6967 51.8654 22.6967 50.3712C22.6967 50.0358 20.9529 48.0724 18.8216 46.0081C16.6904 43.9439 14.9505 41.9694 14.9551 41.6203C14.976 40.0349 19.8348 32.43 21.3899 31.5487C22.951 30.6639 23.5542 30.7594 27.4533 32.5093L31.7832 34.4524L34.1093 33.0127C35.3887 32.2209 37.3403 30.6272 38.4463 29.4711L40.4572 27.3691L39.1874 22.4404C37.6814 16.5938 37.9785 15.9684 43.481 13.4031C48.7599 10.942 50.4653 11.1814 53.0124 14.7413C57.0001 20.3143 56.726 20.1486 61.2245 19.7072C63.4781 19.486 65.8541 19.0323 66.5043 18.6988C67.1546 18.3654 68.215 16.2685 68.8607 14.0391C69.5065 11.8096 70.3608 9.58924 70.7591 9.10486C72.1676 7.39197 82.8266 8.47831 84.0849 10.463C84.4098 10.9754 84.6853 13.2969 84.6972 15.622C84.7088 17.947 84.9517 20.204 85.2364 20.6376C85.9378 21.7058 92.8202 25.1334 94.2636 25.1334C94.9008 25.1334 96.9369 23.8652 98.7882 22.3152C100.64 20.7652 102.795 19.497 103.578 19.497C105.22 19.497 111.755 24.4424 112.873 26.5306C113.665 28.0106 112.787 30.3881 109.966 34.4013C109.243 35.4299 108.652 36.6703 108.652 37.1578C108.652 38.1727 112.817 44.9545 113.913 45.7241C114.313 46.0051 116.773 46.0395 119.38 45.8005C122.718 45.4945 124.436 45.6289 125.19 46.2547C126.624 47.4444 129.22 56.0037 128.672 57.7319C128.413 58.5455 126.398 59.9385 123.728 61.1493C121.21 62.2907 119.199 63.6567 119.173 64.243C119.147 64.8204 119.126 66.878 119.126 68.8156C119.126 70.7531 119.147 72.8107 119.173 73.3881C119.199 73.9744 121.21 75.3404 123.728 76.4818C126.398 77.6926 128.413 79.0856 128.672 79.8992C129.22 81.6274 126.624 90.1867 125.19 91.3764C124.436 92.0022 122.718 92.1366 119.38 91.8306C116.773 91.5916 114.313 91.626 113.913 91.9071C112.817 92.6766 108.652 99.4584 108.652 100.473C108.652 100.961 109.243 102.201 109.966 103.23C112.787 107.243 113.665 109.62 112.873 111.101C111.755 113.189 105.22 118.134 103.578 118.134C102.795 118.134 100.64 116.866 98.7882 115.316C96.9369 113.766 94.9008 112.498 94.2636 112.498C92.8202 112.498 85.9378 115.925 85.2364 116.994C84.9517 117.427 84.7091 119.684 84.6972 122.009C84.6855 124.334 84.4098 126.656 84.0849 127.168C82.8266 129.153 72.1676 130.239 70.7591 128.526ZM77.9363 105.47C85.6083 103.507 90.8976 100.452 96.289 94.8672C101.549 89.4193 104.597 83.6546 106.187 76.1517C107.48 70.0464 107.48 67.5848 106.187 61.4795C104.597 53.9765 101.549 48.2118 96.289 42.7639C90.8976 37.1794 85.6083 34.1238 77.9363 32.1616C71.3317 30.4724 67.8652 30.4197 61.2339 31.9075C54.7335 33.3659 50.0605 35.5878 45.3856 39.443C32.7998 49.8217 28.214 65.862 33.4501 81.1907C35.4869 87.1536 37.5821 90.3883 42.8544 95.7097C47.5574 100.457 53.1451 103.594 60.1801 105.437C66.8289 107.179 71.2224 107.187 77.9363 105.47ZM60.5076 95.8233C60.2493 95.565 60.0379 91.1264 60.0379 85.9596C60.0379 80.7929 59.7779 76.5656 59.4602 76.5656C57.9306 76.5656 52.6165 70.9643 51.142 67.7979C49.0138 63.2274 48.8634 55.7753 50.8128 51.4828C52.4931 47.7828 56.6342 43.645 60.2987 42.0043C64.6417 40.0599 64.966 40.6892 64.9919 51.1119C65.0134 59.7482 65.065 60.0457 66.7533 61.2745C68.4269 62.4926 68.5582 62.4926 70.2318 61.2745C71.9201 60.0457 71.9717 59.7482 71.9931 51.1119C72.0188 40.6892 72.3434 40.0599 76.6863 42.0043C83.1455 44.8962 86.9461 50.8139 87.3808 58.6562C87.7376 65.0918 85.8578 69.7879 81.3293 73.774C79.585 75.3094 77.8854 76.5656 77.5525 76.5656C77.2196 76.5656 76.9471 80.5028 76.9471 85.3149C76.9471 94.954 76.6893 96.293 74.8335 96.293C73.0077 96.293 72.7198 94.9417 72.7198 86.3717V78.6793H68.4926H64.2652V86.3717C64.2652 90.6026 64.0728 94.5657 63.8376 95.1786C63.4066 96.3016 61.3786 96.6943 60.5076 95.8233ZM73.4791 74.3523C84.7317 70.981 87.6993 55.672 78.643 47.714L75.8903 45.2952L75.6922 53.4888L75.4941 61.6823L72.0069 64.2421C68.2771 66.9801 68.2997 66.9817 64.1106 63.6518L61.49 61.5688L61.2924 53.432L61.0947 45.2952L58.342 47.714C54.8293 50.8008 53.0275 54.7829 53.0079 59.5029C52.9622 70.4622 62.7548 77.5654 73.4791 74.3523ZM67.2243 90.5157C66.3398 89.6312 66.0702 84.5308 66.8065 82.6119C67.3597 81.1704 69.6253 81.1704 70.1785 82.6119C71.3693 85.715 70.2812 91.3612 68.4926 91.3612C68.26 91.3612 67.6894 90.9807 67.2243 90.5157Z" fill="#04382E"/>
</svg>
