<svg width="138" height="138" viewBox="0 0 138 138" fill="none" xmlns="http://www.w3.org/2000/svg">
<g clip-path="url(#clip0_31_7675)">
<path d="M0 68.736C0 103.783 27.489 134.029 62.416 137.24C97.355 140.451 130.049 115.883 136.44 81.33C142.831 46.784 121.27 11.987 87.414 2.493C53.547 -7.005 16.951 11.434 4.462 44.311C1.504 52.097 0 60.408 0 68.736Z" fill="#970F00"/>
<path d="M4.86621 68.736C4.86621 103.576 33.9552 132.668 68.7952 132.668C103.634 132.668 132.724 103.576 132.724 68.736C132.724 33.898 103.634 4.80801 68.7952 4.80801C33.9602 4.80701 4.87021 33.896 4.87021 68.734" fill="url(#paint0_radial_31_7675)"/>
<path d="M11.0311 43.889C5.8651 73.995 23.8481 104.238 52.7641 114.09C83.4331 124.541 117.943 109.096 130.769 79.39C124.606 115.341 87.6411 138.973 52.4201 129.468C16.0541 119.658 -3.9579 78.561 11.0301 43.887" fill="#B20D0D"/>
<path d="M28.8659 40.359C37.7089 42.188 47.8869 29.663 55.5529 26.475C69.8749 20.523 87.7639 23.287 100.739 31.392C114.464 39.969 124.226 56.438 125.727 72.606C125.732 72.652 125.732 72.661 125.728 72.63C124.714 62.84 125.399 53.636 121.67 44.172C115.492 28.486 102.132 16.202 86.0239 11.265C69.3689 6.16299 51.1559 9.41099 36.8079 19.135C32.3779 22.137 15.3249 37.556 28.8659 40.359Z" fill="#EF5656"/>
<path fill-rule="evenodd" clip-rule="evenodd" d="M56.4019 29.004C56.4019 41.472 58.4249 54.464 60.3909 66.734C61.0019 70.544 66.6799 100.959 73.1389 86.178C79.2519 72.189 79.7719 54.762 81.0729 39.75C81.4469 35.438 82.8109 29.656 81.2249 25.43C76.8779 13.842 56.4019 15.899 56.4019 29.004ZM59.2319 29.004C59.2319 19.281 74.3509 17.783 78.2599 25.703C80.4029 30.039 78.5599 37.322 78.0919 41.88C76.6789 55.613 75.4229 70.144 71.3009 83.384C70.3409 86.467 69.0559 89.465 67.4259 85.059C65.3829 79.538 64.5269 73.475 63.5789 67.695C61.5029 55.065 59.2319 41.844 59.2319 29.004Z" fill="#970F00"/>
<path fill-rule="evenodd" clip-rule="evenodd" d="M55.6948 107.19C55.6948 124.063 81.8748 124.063 81.8748 107.19C81.8748 90.309 55.6948 90.307 55.6948 107.19ZM58.5278 107.19C58.5278 93.961 79.0388 93.961 79.0388 107.19C79.0388 120.41 58.5278 120.41 58.5278 107.19Z" fill="#970F00"/>
<path fill-rule="evenodd" clip-rule="evenodd" d="M80.459 29.004C80.459 41.927 78.188 55.354 76.077 68.059C75.566 71.125 70.98 97.798 66.181 85.205C60.975 71.549 60.151 55.453 58.739 41.032C58.296 36.513 56.66 29.928 58.526 25.548C62.677 15.795 80.459 17.606 80.459 29.004Z" fill="white"/>
<path fill-rule="evenodd" clip-rule="evenodd" d="M80.4588 107.19C80.4588 122.244 57.1118 122.244 57.1118 107.19C57.1118 92.129 80.4588 92.129 80.4588 107.19Z" fill="white"/>
</g>
<defs>
<radialGradient id="paint0_radial_31_7675" cx="0" cy="0" r="1" gradientUnits="userSpaceOnUse" gradientTransform="translate(68.7952 68.738) scale(63.929 63.929)">
<stop stop-color="#F28888"/>
<stop offset="1" stop-color="#D82A2A"/>
</radialGradient>
<clipPath id="clip0_31_7675">
<rect width="137.561" height="137.522" fill="white"/>
</clipPath>
</defs>
</svg>
