<svg width="1920" height="1200" viewBox="0 0 1920 1200" fill="none" xmlns="http://www.w3.org/2000/svg">
<g clip-path="url(#clip0_17_1132)">
<rect width="1920" height="1200" fill="url(#paint0_linear_17_1132)"/>
<g clip-path="url(#clip1_17_1132)">
<mask id="mask0_17_1132" style="mask-type:luminance" maskUnits="userSpaceOnUse" x="-326" y="-282" width="2715" height="2715">
<path d="M-326 -281H2388V2433H-326V-281Z" fill="white"/>
</mask>
<g mask="url(#mask0_17_1132)">
<path d="M299.464 -1.61661C325.935 4.30895 352.22 12.8399 376.46 23.8768C403.465 36.1305 428.954 51.935 450.629 70.5982C475.919 92.3148 497.071 118.908 510.446 148.82C518.127 165.959 523.333 184.247 525.626 203.354C528.155 224.414 527.124 246.434 521.935 268.775C516.277 293.445 505.588 318.314 489.634 342.464C472.142 368.885 448.617 393.976 419.17 416.253C387.502 440.281 350.189 460.356 308.479 475.387C264.96 491.065 218.221 500.672 170.332 503.563C121.969 506.702 74.6907 502.314 30.7193 491.255C-11.7593 480.543 -49.597 463.97 -81.4729 442.869C-111.318 423.124 -135.12 399.942 -152.512 374.593C-168.443 351.334 -178.706 326.687 -183.411 301.514" stroke="#C9EBDA" stroke-opacity="0.5" stroke-width="2.85875"/>
<path d="M236.663 -7.7C262.776 -5.50166 288.844 -0.865155 313.487 5.96055C339.989 13.3064 365.989 23.511 389.257 36.4975C415.474 51.0716 439.226 69.3732 458.224 90.9133C480.502 116.176 496.406 146.433 502.182 179.471C505.706 198.496 505.724 218.367 502.01 238.627C497.908 260.9 489.282 283.476 475.884 305.563C461.228 329.691 441.095 352.878 415.529 373.843C388.022 396.387 354.943 415.815 317.146 430.489C236.934 462.342 145.201 471.905 59.8726 455.091C18.9364 447.185 -18.0644 433.524 -49.7549 415.404C-79.5954 398.305 -103.886 377.711 -122.078 354.768" stroke="#C9EBDA" stroke-opacity="0.5" stroke-width="2.85875"/>
<path d="M304.815 7.89583C330.472 14.8391 355.49 24.6367 377.804 37.0035C402.791 50.8494 425.249 68.3095 442.877 88.7234C463.698 112.575 477.557 140.805 482.071 171.568C484.636 189.092 484.161 207.416 480.172 226.02C475.816 246.362 467.271 266.893 454.072 286.746C424.697 332.468 373.321 371.73 305.973 397.54C232.677 425.558 149.453 434.265 71.7643 419.687C-2.43191 406.555 -60.8372 374.109 -97.4445 331.848C-113.742 313.017 -125.213 292.735 -131.867 271.819C-137.987 252.64 -140.032 233.126 -138.168 213.834" stroke="#C9EBDA" stroke-opacity="0.5" stroke-width="2.85875"/>
<path d="M261.165 2.56374C289.553 7.17301 317.684 15.0976 342.865 26.0622C370.892 38.2254 396.575 54.7766 416.659 74.6657C440.298 97.9473 456.975 126.761 462.069 158.365C465.063 176.549 464.267 195.624 459.282 214.957C453.768 236.212 443.238 257.589 427.275 277.949C410.105 300.461 386.651 320.961 357.828 338.417C327.097 357.03 291.259 371.64 252.141 381.198C170.237 401.196 83.9542 397.5 13.7069 368.904C-18.9245 355.999 -46.1866 338.697 -67.2789 318.491C-86.7926 299.774 -100.571 279.003 -108.527 257.295C-115.873 237.546 -118.18 217.241 -116.176 197.366C-114.353 179.317 -108.966 161.695 -100.607 145.053" stroke="#C9EBDA" stroke-opacity="0.5" stroke-width="2.85875"/>
<path d="M-95.6585 185.65C-99.1053 220.357 -86.9556 255.508 -58.6712 286.221C-26.1439 321.503 25.2592 348.399 89.7846 358.816C156.942 370.491 228.859 362.765 291.874 339.23C350.116 317.437 394.73 284.34 419.811 245.751C441.632 213.038 448.602 178.697 443.061 147.269C438.362 120.6 424.579 96.1059 404.898 75.7735C387.827 58.0511 365.997 43.047 341.811 31.5849C319.905 21.1721 295.307 13.3017 270.184 8.24458" stroke="#C9EBDA" stroke-opacity="0.5" stroke-width="2.85875"/>
<path d="M-74.0551 160.993C-81.1838 194.61 -72.68 229.992 -46.2909 260.832C-15.7493 296.625 36.1469 323.453 101.183 333.201C168.966 343.559 241.366 333.933 301.848 307.693C356.973 283.819 395.775 248.596 414.139 210.442C429.876 178.231 430.292 145.424 418.73 116.741C408.992 92.4327 390.392 70.8471 367.106 53.8937C346.629 38.9531 321.542 27.1019 294.959 19.0052C270.333 11.4784 243.261 6.8149 216.325 5.25435" stroke="#C9EBDA" stroke-opacity="0.5" stroke-width="2.85875"/>
<path d="M233.736 19.354C256.113 22.457 278.02 28.3193 297.172 36.5473C317.848 45.3994 336.027 57.3001 349.606 71.5758C364.899 87.5884 374.539 106.568 376.176 126.928C378.135 150.133 369.676 174.984 350.099 197.637C328.152 223.166 293.435 244.562 250.188 257.372C204.38 270.991 153.85 273.972 107.915 265.369C63.392 257.458 27.6894 239.016 4.86464 215.336C-15.5492 194.126 -24.6592 169.705 -21.9633 145.478" stroke="#C9EBDA" stroke-opacity="0.5" stroke-width="2.85875"/>
<path d="M-47.2991 127.394C-59.1729 152.983 -61.3848 180.955 -51.1032 207.774C-39.3245 238.758 -11.5783 266.943 30.0861 286.498C75.5411 307.947 133.128 317.039 192.438 311.141C250.811 305.392 304.141 286.312 343.304 258.041C378.754 232.982 399.602 202.156 406.649 171.664C412.715 145.388 408.427 119.827 395.255 97.5672C384.069 78.2436 366.5 61.1769 345.507 47.8059C326.595 35.7376 304.101 26.2115 280.412 19.7115" stroke="#C9EBDA" stroke-opacity="0.5" stroke-width="2.85875"/>
<path d="M296.193 30.0927C317.159 37.9768 336.27 48.6427 351.631 61.5387C368.689 75.9003 381.73 93.3513 388.031 112.44C395.539 134.269 394.083 158.329 382.937 182.063C370.245 209.072 345.403 234.909 309.184 254.418C270.121 275.886 220.789 288.832 169.906 290.429C118.942 292.048 70.9765 282.02 33.6048 262.592C-1.14349 244.928 -23.6878 220.412 -33.7251 193.941C-42.5365 170.642 -41.4238 146.446 -31.3368 123.866" stroke="#C9EBDA" stroke-opacity="0.5" stroke-width="2.85875"/>
<path d="M-1.69876 121.269C-9.78647 145.65 -5.64311 171.464 12.6945 194.149C33.3345 219.905 70.6474 239.74 117.428 247.615C165.882 255.988 219.818 250.37 264.852 232.95C306.679 216.847 336.873 191.779 351.148 164.277C363.696 140.339 363.524 115.701 352.953 94.4457C343.766 75.8051 326.618 59.4033 305.259 47.4888C285.854 36.5695 261.894 28.6538 237.056 24.5105C213.209 20.5028 187.485 19.7565 162.363 22.2941" stroke="#C9EBDA" stroke-opacity="0.5" stroke-width="2.85875"/>
<path d="M186.665 -15.5118C216.008 -16.231 246.016 -14.363 274.536 -9.92558C304.643 -5.28012 334.854 2.43689 363.035 13.0713C394.684 24.9495 424.765 41.0796 451.059 60.8647C482.053 84.2006 509.17 113.702 526.721 148.007C537.296 168.081 544.624 189.748 548.193 212.591C552.182 238.225 551.418 265.292 545.131 292.939C538.083 323.996 524.124 355.42 502.598 385.563C478.665 419.045 445.975 450.052 404.713 475.88C360.592 503.975 309.298 525.293 253.308 538.022C195.518 551.14 135.751 554.5 77.617 547.503C20.8582 540.65 -30.8119 524.063 -74.6746 499.836C-115.575 477.233 -147.993 448.854 -171.139 416.869" stroke="#C9EBDA" stroke-opacity="0.5" stroke-width="2.85875"/>
<path d="M81.9066 174.178C52.7537 157.152 41.2147 131.528 48.2123 107.839C53.88 87.2441 73.5068 68.0426 99.0455 55.3953C122.214 43.7251 152.149 36.6959 180.248 35.8183C208.551 34.8142 237.595 39.8215 259.8 49.8362" stroke="#C9EBDA" stroke-opacity="0.5" stroke-width="2.85875"/>
<path d="M131.824 180.226C93.005 172.541 66.2947 152.606 59.8806 129.248C54.1269 108.974 64.1506 87.3753 84.6413 71.2586C102.599 56.8292 129.427 46.2358 156.865 42.106C183.259 37.9807 212.597 39.5501 236.073 46.5884" stroke="#C9EBDA" stroke-opacity="0.5" stroke-width="2.85875"/>
<path d="M95.2862 154.082C72.6334 139.304 65.2603 117.859 73.1535 98.5033C79.8526 81.2739 98.5973 65.768 122.082 56.2102C143.98 47.1681 171.124 42.9251 195.944 44.3635C221.216 45.7386 245.606 53.1162 261.876 64.8135" stroke="#C9EBDA" stroke-opacity="0.5" stroke-width="2.85875"/>
<path d="M125.253 156.479C94.1961 146.161 78.1745 124.955 82.3269 104.229C85.4118 86.0003 104.188 68.7893 128.935 58.9872C151.873 49.6782 181.415 46.3355 206.596 49.9632C232.673 53.5502 256.082 64.8493 266.567 80.2105" stroke="#C9EBDA" stroke-opacity="0.5" stroke-width="2.85875"/>
<path d="M248.821 72.7564C236.323 61.819 215.307 54.6722 193.247 53.3514C171.548 51.9673 147.498 56.1062 129.242 64.7141C109.624 73.7698 95.5745 88.1946 93.53 103.18C90.8883 119.831 102.862 136.644 126.329 146.03" stroke="#C9EBDA" stroke-opacity="0.5" stroke-width="2.85875"/>
<path d="M243.692 78.8902C233.623 67.2245 213.033 59.2861 191.181 58.0603C169.682 56.6988 145.613 61.6924 129.134 71.3542C111.1 81.6041 101.212 97.3544 105.437 111.933C109.589 128.063 130.591 141.484 158.654 144.51" stroke="#C9EBDA" stroke-opacity="0.5" stroke-width="2.85875"/>
<path d="M161.393 119.677C148.121 116.764 139.088 109.499 137.948 101.276C136.596 93.4145 142.431 85.3313 152.622 79.9304C162.094 74.7603 175.99 72.3356 187.945 73.5297C200.144 74.6334 211.145 79.6272 215.799 86.3082" stroke="#C9EBDA" stroke-opacity="0.5" stroke-width="2.85875"/>
<path d="M238.346 87.2536C233.565 76.6554 219.805 68.2195 202.901 64.7501C186.694 61.2672 166.764 62.5111 150.824 67.9165C134.137 73.435 120.861 83.7934 117.062 95.0474C112.656 107.333 119.043 120.405 134.888 128.47" stroke="#C9EBDA" stroke-opacity="0.5" stroke-width="2.85875"/>
<path d="M137.324 118.714C127.079 111.454 124.211 100.883 129.133 91.5736C133.588 82.83 145.095 75.0545 158.778 71.1689C172.131 67.3105 188.148 66.8265 200.995 70.0516C214.42 73.3084 224.792 80.3105 228.275 88.923" stroke="#C9EBDA" stroke-opacity="0.5" stroke-width="2.85875"/>
<path d="M207.463 91.3793C205.418 84.9471 196.15 79.9624 185.353 78.9854C180.219 78.4742 174.261 78.8996 169.055 80.1435C163.876 81.3784 159.113 83.4951 155.508 86.2317C151.826 89.0181 149.51 92.3112 148.867 95.6403C148.18 99.1097 149.293 102.76 152.007 105.61C157.634 111.811 170.389 115.145 182.707 113.367" stroke="#C9EBDA" stroke-opacity="0.5" stroke-width="2.85875"/>
<path d="M171.445 206.145C112.664 208.027 62.9887 187.274 43.4524 156.651C26.2954 130.61 33.5011 100.548 57.1174 77.4111C77.0472 57.6035 109.552 42.5587 143.563 36.0134C175.498 29.6762 212.137 30.4542 241.62 38.3248" stroke="#C9EBDA" stroke-opacity="0.5" stroke-width="2.85875"/>
</g>
</g>
<g clip-path="url(#clip2_17_1132)">
<mask id="mask1_17_1132" style="mask-type:luminance" maskUnits="userSpaceOnUse" x="-655" y="-520" width="2715" height="2715">
<path d="M-655 -519H2059V2195H-655V-519Z" fill="white"/>
</mask>
<g mask="url(#mask1_17_1132)">
<path d="M1447.1 729.091C1407.72 771.235 1383.57 820.038 1375.15 869.184C1367.75 911.784 1372.41 953.661 1386.02 990.793C1397.88 1023.33 1416.95 1052.85 1440.5 1077.38C1461.6 1099.36 1486.64 1117.89 1513.54 1132.21C1538.43 1145.49 1565.69 1155.61 1593.51 1162.14C1620.22 1168.42 1648.05 1171.61 1675.71 1171.74C1730.78 1172.11 1790.29 1159.1 1840.93 1134.69" stroke="#D3F9E6" stroke-opacity="0.7" stroke-width="2.85875"/>
<path d="M1587.48 671.976C1524.83 694.434 1473.81 733.149 1439.05 779.762C1408.19 821.223 1391.63 867.031 1389.7 912.052C1387.87 951.102 1396.54 988.292 1412.99 1021.02C1427.5 1049.86 1448.37 1075.43 1472.91 1096.15C1494.99 1115.01 1520.87 1130.32 1548.05 1141.66C1573.55 1152.28 1601.03 1159.77 1628.91 1163.55C1655.86 1167.3 1684 1167.96 1711.57 1165.37C1739.42 1162.77 1767.6 1156.79 1794.29 1147.74" stroke="#D3F9E6" stroke-opacity="0.7" stroke-width="2.85875"/>
<path d="M1462.2 789.922C1430.42 827.655 1412.3 870.546 1407.86 912.884C1403.96 950.016 1410.47 985.909 1424.91 1017.7C1437.52 1045.9 1456.97 1070.9 1480.05 1091.4C1501.03 1110.02 1525.54 1125.38 1551.85 1136.64C1599.63 1157.42 1657.41 1165.63 1710.89 1160.47C1765.58 1155.42 1823.26 1135.61 1868.9 1104.15" stroke="#D3F9E6" stroke-opacity="0.7" stroke-width="2.85875"/>
<path d="M1543.73 753.192C1491.87 784.345 1454.96 827.782 1436.76 874.951C1420.78 916.019 1419.85 958.452 1430.82 996.272C1440.27 1029.24 1459.06 1059.05 1483.56 1082.95C1505.45 1104.41 1532.47 1121.77 1561.51 1133.94C1614 1156.28 1680 1162.44 1738.24 1151.53C1768.5 1145.98 1798.73 1135.9 1826.18 1121.92C1855.74 1106.91 1883.24 1086.65 1905.31 1062.65" stroke="#D3F9E6" stroke-opacity="0.7" stroke-width="2.85875"/>
<path d="M1863.37 1090.29C1821.18 1123.57 1764.33 1144.93 1710.41 1150.15C1657.72 1155.53 1600.26 1146.33 1554.88 1123.78C1529.82 1111.47 1506.87 1094.9 1488.46 1075.02C1468.12 1053.08 1452.88 1026.58 1445.38 997.633C1436.81 964.97 1437.84 929.014 1450.55 893.976C1464.78 854.438 1493.31 817.274 1533.86 788.456" stroke="#D3F9E6" stroke-opacity="0.7" stroke-width="2.85875"/>
<path d="M1868.91 1075.13C1847.29 1095.43 1820.79 1112.05 1792.71 1123.8C1766.19 1134.92 1737.2 1142.15 1708.59 1144.91C1680.33 1147.67 1651.1 1146.2 1623.82 1140.65C1595.56 1134.92 1568.1 1124.48 1544.43 1109.99C1518.74 1094.36 1496.48 1073.43 1480.94 1048.95C1463.48 1021.52 1454.24 989.007 1455.91 955.222C1457.72 916.747 1474.06 877.24 1504.75 843.455C1538.67 805.817 1588.02 777.537 1644.73 765.328" stroke="#D3F9E6" stroke-opacity="0.7" stroke-width="2.85875"/>
<path d="M1616.08 840.104C1578.36 854.89 1547.43 878.688 1527.4 906.868C1508.99 932.651 1500.42 961.171 1501.37 988.759C1502.17 1013.77 1510.64 1037.34 1525.06 1057.43C1538.21 1075.85 1556.55 1091.57 1577.54 1103.23C1597.31 1114.24 1619.95 1121.94 1643.4 1125.84C1666.4 1129.67 1690.67 1130.07 1714.06 1126.93C1762.03 1120.73 1811.44 1097.78 1842.7 1064.59" stroke="#D3F9E6" stroke-opacity="0.7" stroke-width="2.85875"/>
<path d="M1881 1048.29C1864.98 1069.63 1843.94 1088.13 1820.24 1102.49C1798.11 1115.94 1773.07 1126.18 1747.55 1132.53C1722.79 1138.72 1696.7 1141.46 1671.44 1140.54C1645.9 1139.63 1620.3 1135.11 1596.93 1127.05C1572.28 1118.7 1549.45 1106.06 1530.32 1090.24C1509.56 1073.07 1492.58 1051.67 1482.66 1027.54C1471.37 1000.78 1468.04 970.362 1474.53 940.073C1481.76 906.139 1501.32 872.829 1532.01 845.341" stroke="#D3F9E6" stroke-opacity="0.7" stroke-width="2.85875"/>
<path d="M1520.25 886.078C1499.48 912.273 1488.29 941.648 1486.63 970.466C1485.17 996.57 1491.27 1021.91 1503.66 1043.92C1524.92 1082.56 1567.13 1112.3 1613.36 1125.5C1635.08 1131.8 1658.79 1135.01 1682.13 1134.97C1705.39 1134.93 1729.21 1131.64 1751.73 1125.25C1799.21 1111.96 1844.45 1083.05 1870.96 1045.25" stroke="#D3F9E6" stroke-opacity="0.7" stroke-width="2.85875"/>
<path d="M1847.47 1043.37C1833 1064.96 1811.99 1083.27 1787.6 1096.59C1764.71 1109.14 1738.16 1117.61 1711.82 1121.04C1685.97 1124.47 1658.53 1123.15 1633.7 1117.33C1608.06 1111.35 1583.81 1100.14 1564.46 1084.82C1543.47 1068.3 1527.7 1046.61 1520.55 1022.47C1512.48 995.543 1514.73 965.128 1528.95 937.291C1544.55 906.266 1574.24 878.782 1613 861.634C1653.79 843.423 1700.86 838.181 1744.99 847.101" stroke="#D3F9E6" stroke-opacity="0.7" stroke-width="2.85875"/>
<path d="M1726.31 583.273C1637.61 580.369 1551.26 607.523 1483.48 657.356C1452.19 680.258 1426.01 707.122 1405.47 736.402C1386.38 763.673 1372.5 792.609 1363.88 822.074C1355.75 849.263 1352.45 876.593 1353.27 903.068C1354 927.427 1358.22 951.007 1365.31 973.221C1377.9 1012.72 1399.64 1048.12 1427.8 1077.11C1452.16 1102.6 1481.8 1123.48 1513.21 1139.11C1542.05 1153.45 1573.5 1163.94 1605.62 1169.85C1636.29 1175.6 1668.23 1177.58 1699.83 1175.73C1731.56 1173.9 1763.95 1168.03 1794.65 1158.5" stroke="#D3F9E6" stroke-opacity="0.7" stroke-width="2.85875"/>
<path d="M1750.16 1086.42C1778.05 1074.77 1802.16 1054.12 1813.92 1030.15C1827.51 1003.38 1826.28 971.773 1808.32 946.293C1788.87 917.814 1750.16 898.712 1706.77 897.64C1662.63 896.161 1619.43 913.128 1593 940.811" stroke="#D3F9E6" stroke-opacity="0.7" stroke-width="2.85875"/>
<path d="M1714.86 1090.79C1743.08 1085.6 1770.18 1071.75 1787.97 1052.48C1807.39 1031.61 1816.34 1003.92 1809.29 978.232C1801.98 949.722 1775.8 925.074 1739.04 915.177C1701.31 904.543 1656.67 910.916 1624.18 931.524" stroke="#D3F9E6" stroke-opacity="0.7" stroke-width="2.85875"/>
<path d="M1747.83 1073.37C1771.8 1061.52 1790.66 1041.52 1797.3 1019.49C1805.01 995.095 1797.87 968.38 1776.76 949.219C1754.15 928.281 1717.53 918.262 1680.98 923.563C1644.89 928.557 1613.69 947.876 1598.43 973.17" stroke="#D3F9E6" stroke-opacity="0.7" stroke-width="2.85875"/>
<path d="M1724.91 1075.63C1751.72 1067.45 1774.95 1048.87 1784.09 1026.84C1794.76 1002.57 1788.19 974.424 1765.45 955.683C1741.3 935.102 1701.35 928.046 1665.63 938.531C1630.98 948.283 1605.45 972.994 1600.12 999.836" stroke="#D3F9E6" stroke-opacity="0.7" stroke-width="2.85875"/>
<path d="M1617.03 987.066C1628.57 966.227 1654.12 950.043 1683.45 945.981C1713.07 941.666 1743.19 950.156 1760.79 967.562C1777.57 983.665 1782.17 1006.13 1773.96 1025.89C1766.7 1044.16 1748.71 1059.93 1726.97 1067.98" stroke="#D3F9E6" stroke-opacity="0.7" stroke-width="2.85875"/>
<path d="M1624.64 996.99C1633.23 976.595 1657.41 960.008 1685.44 956.448C1713.74 952.494 1742.26 962.125 1756.42 980.114C1770.12 996.705 1770.08 1018.83 1757.75 1036.26C1746.69 1052.51 1724.94 1064.49 1702.38 1067.45" stroke="#D3F9E6" stroke-opacity="0.7" stroke-width="2.85875"/>
<path d="M1704.85 1045.71C1717.26 1042.44 1727.74 1034.44 1731.86 1024.82C1736.45 1014.7 1733.91 1003.46 1725.09 995.493C1716.37 987.315 1701.06 983.629 1686.98 986.157C1672.9 988.491 1660.53 997.031 1655.83 1007.27" stroke="#D3F9E6" stroke-opacity="0.7" stroke-width="2.85875"/>
<path d="M1632.35 1009.34C1635.34 993.042 1649.86 977.897 1670.09 970.656C1690.6 963.002 1715.25 964.716 1732.49 974.627C1749.27 983.999 1758 1000.42 1755.49 1016.29C1753.36 1031.29 1741.68 1045.41 1725.27 1053.46" stroke="#D3F9E6" stroke-opacity="0.7" stroke-width="2.85875"/>
<path d="M1726.24 1044.16C1738.09 1036.29 1745.41 1023.94 1744.97 1011.97C1744.69 999.37 1735.74 987.197 1721.57 980.919C1707.02 974.338 1687.81 974.053 1672.15 980.521C1656.57 986.75 1645.63 998.569 1643.08 1011.37" stroke="#D3F9E6" stroke-opacity="0.7" stroke-width="2.85875"/>
<path d="M1664.62 1014.11C1666.77 1004.95 1677.02 997.049 1689.06 995.118C1694.86 994.118 1701.39 994.593 1706.84 996.398C1712.17 998.158 1716.67 1001.25 1719.6 1005.21C1722.49 1009.1 1723.7 1013.6 1723.17 1018.02C1722.66 1022.43 1720.37 1026.94 1716.9 1030.37C1709.99 1037.47 1697.77 1041.32 1686.97 1039.76" stroke="#D3F9E6" stroke-opacity="0.7" stroke-width="2.85875"/>
<path d="M1686.39 1104.79C1721.33 1104.87 1758.11 1093.66 1785.19 1074.24C1815.31 1052.96 1834.9 1020.92 1834.72 987.981C1834.89 950.274 1809.05 913.829 1764.2 896.017C1717.21 876.625 1656.67 881.818 1612.73 908.967" stroke="#D3F9E6" stroke-opacity="0.7" stroke-width="2.85875"/>
</g>
</g>
</g>
<defs>
<linearGradient id="paint0_linear_17_1132" x1="0" y1="0" x2="28.652" y2="1243.58" gradientUnits="userSpaceOnUse">
<stop stop-color="#DAF9E9"/>
<stop offset="1" stop-color="#AEECDB"/>
</linearGradient>
<clipPath id="clip0_17_1132">
<rect width="1920" height="1200" fill="white"/>
</clipPath>
<clipPath id="clip1_17_1132">
<rect width="1020" height="956" fill="white" transform="translate(-326 -281)"/>
</clipPath>
<clipPath id="clip2_17_1132">
<rect width="850" height="967" fill="white" transform="translate(1209 483)"/>
</clipPath>
</defs>
</svg>
