<svg width="1920" height="4005" viewBox="0 0 1920 4005" fill="none" xmlns="http://www.w3.org/2000/svg">
<g clip-path="url(#clip0_20_3837)">
<rect width="1920" height="4005" fill="url(#paint0_linear_20_3837)"/>
<g clip-path="url(#clip1_20_3837)">
<mask id="mask0_20_3837" style="mask-type:luminance" maskUnits="userSpaceOnUse" x="-443" y="-501" width="2715" height="2715">
<path d="M-443 -500H2271V2214H-443V-500Z" fill="white"/>
</mask>
<g mask="url(#mask0_20_3837)">
<path d="M182.464 -220.616C208.935 -214.691 235.22 -206.16 259.46 -195.123C286.465 -182.869 311.954 -167.065 333.629 -148.402C358.919 -126.685 380.071 -100.092 393.446 -70.1795C401.127 -53.0406 406.333 -34.7528 408.626 -15.6462C411.155 5.41442 410.124 27.4339 404.935 49.7747C399.277 74.4449 388.588 99.3143 372.634 123.464C355.142 149.885 331.617 174.976 302.17 197.253C270.502 221.281 233.189 241.356 191.479 256.387C147.96 272.065 101.221 281.672 53.332 284.563C4.96853 287.702 -42.3093 283.314 -86.2807 272.255C-128.759 261.544 -166.597 244.97 -198.473 223.869C-228.318 204.124 -252.12 180.942 -269.512 155.594C-285.443 132.335 -295.706 107.687 -300.411 82.5146" stroke="#C9EBDA" stroke-opacity="0.5" stroke-width="2.85875"/>
<path d="M119.663 -226.7C145.776 -224.502 171.844 -219.865 196.487 -213.039C222.989 -205.693 248.989 -195.489 272.257 -182.502C298.474 -167.928 322.226 -149.627 341.224 -128.087C363.502 -102.824 379.406 -72.5672 385.182 -39.5288C388.706 -20.5036 388.724 -0.632596 385.01 19.6274C380.908 41.9003 372.282 64.4761 358.884 86.5636C344.228 110.691 324.095 133.878 298.529 154.843C271.022 177.388 237.943 196.815 200.146 211.489C119.934 243.342 28.2007 252.905 -57.1274 236.091C-98.0636 228.185 -135.064 214.524 -166.755 196.404C-196.595 179.306 -220.886 158.711 -239.079 135.768" stroke="#C9EBDA" stroke-opacity="0.5" stroke-width="2.85875"/>
<path d="M187.815 -211.104C213.472 -204.161 238.49 -194.363 260.804 -181.996C285.791 -168.15 308.249 -150.69 325.877 -130.277C346.698 -106.425 360.557 -78.1948 365.071 -47.4317C367.636 -29.9083 367.161 -11.5843 363.172 7.0202C358.816 27.3616 350.271 47.8931 337.072 67.746C307.697 113.468 256.321 152.73 188.973 178.54C115.677 206.558 32.4526 215.265 -45.2357 200.687C-119.432 187.555 -177.837 155.11 -214.445 112.848C-230.742 94.0175 -242.213 73.7348 -248.867 52.819C-254.987 33.64 -257.032 14.1264 -255.168 -5.16566" stroke="#C9EBDA" stroke-opacity="0.5" stroke-width="2.85875"/>
<path d="M144.165 -216.436C172.553 -211.827 200.684 -203.902 225.865 -192.938C253.892 -180.774 279.575 -164.223 299.659 -144.334C323.298 -121.053 339.975 -92.2391 345.069 -60.6346C348.063 -42.4508 347.267 -23.3758 342.282 -4.04308C336.768 17.2121 326.238 38.5893 310.275 58.9488C293.105 81.4615 269.651 101.961 240.828 119.417C210.097 138.03 174.259 152.641 135.141 162.198C53.2368 182.196 -33.0458 178.501 -103.293 149.904C-135.924 136.999 -163.187 119.697 -184.279 99.4914C-203.793 80.7738 -217.571 60.0027 -225.527 38.2952C-232.873 18.5464 -235.18 -1.75883 -233.176 -21.6344C-231.353 -39.6825 -225.966 -57.3054 -217.607 -73.9467" stroke="#C9EBDA" stroke-opacity="0.5" stroke-width="2.85875"/>
<path d="M-212.659 -33.3502C-216.105 1.35737 -203.956 36.5081 -175.671 67.2215C-143.144 102.504 -91.7408 129.399 -27.2154 139.817C39.9425 151.491 111.859 143.765 174.874 120.231C233.116 98.4372 277.73 65.3399 302.811 26.7513C324.632 -5.96144 331.602 -40.3026 326.061 -71.7307C321.362 -98.4003 307.579 -122.894 287.898 -143.226C270.827 -160.949 248.997 -175.953 224.811 -187.415C202.905 -197.828 178.307 -205.698 153.184 -210.755" stroke="#C9EBDA" stroke-opacity="0.5" stroke-width="2.85875"/>
<path d="M-191.055 -58.0072C-198.184 -24.3898 -189.68 10.9918 -163.291 41.8319C-132.749 77.6251 -80.8531 104.453 -15.8166 114.201C51.9655 124.559 124.366 114.933 184.848 88.6936C239.973 64.8194 278.775 29.5962 297.139 -8.55809C312.876 -40.7687 313.292 -73.5763 301.73 -102.259C291.992 -126.567 273.392 -148.153 250.106 -165.106C229.629 -180.047 204.542 -191.898 177.958 -199.995C153.333 -207.522 126.261 -212.185 99.3248 -213.746" stroke="#C9EBDA" stroke-opacity="0.5" stroke-width="2.85875"/>
<path d="M116.736 -199.646C139.113 -196.543 161.02 -190.681 180.171 -182.453C200.848 -173.6 219.027 -161.7 232.606 -147.424C247.899 -131.412 257.539 -112.431 259.176 -92.072C261.135 -68.8673 252.676 -44.0161 233.099 -21.3633C211.152 4.16643 176.435 25.5618 133.188 38.3718C87.3798 51.9916 36.8496 54.9725 -9.0848 46.3691C-53.608 38.4578 -89.3106 20.0162 -112.135 -3.66349C-132.549 -24.8734 -141.659 -49.2949 -138.963 -73.5218" stroke="#C9EBDA" stroke-opacity="0.5" stroke-width="2.85875"/>
<path d="M-164.299 -91.6059C-176.173 -66.0174 -178.385 -38.0452 -168.103 -11.2263C-156.324 19.7585 -128.578 47.9433 -86.9139 67.4977C-41.459 88.9474 16.1276 98.0392 75.4375 92.1408C133.811 86.3917 187.141 67.3123 226.304 39.0415C261.754 13.9822 282.602 -16.8443 289.649 -47.3361C295.715 -73.6122 291.427 -99.1734 278.255 -121.433C267.069 -140.756 249.5 -157.823 228.507 -171.194C209.595 -183.262 187.101 -192.788 163.412 -199.289" stroke="#C9EBDA" stroke-opacity="0.5" stroke-width="2.85875"/>
<path d="M179.193 -188.907C200.159 -181.023 219.27 -170.357 234.631 -157.461C251.689 -143.1 264.73 -125.649 271.031 -106.56C278.539 -84.7306 277.083 -60.6709 265.937 -36.937C253.245 -9.92814 228.403 15.9091 192.184 35.4183C153.121 56.886 103.789 69.8318 52.9064 71.4285C1.94197 73.0479 -46.0235 63.0196 -83.3953 43.5918C-118.144 25.9282 -140.688 1.41175 -150.725 -25.0588C-159.537 -48.3585 -158.424 -72.5537 -148.337 -95.1342" stroke="#C9EBDA" stroke-opacity="0.5" stroke-width="2.85875"/>
<path d="M-118.699 -97.731C-126.786 -73.3502 -122.643 -47.5355 -104.306 -24.851C-83.6656 0.904846 -46.3526 20.7397 0.427726 28.6148C48.8817 36.9875 102.818 31.3695 147.852 13.9502C189.679 -2.15291 219.873 -27.2213 234.148 -54.7231C246.696 -78.6606 246.524 -103.299 235.953 -124.554C226.766 -143.195 209.618 -159.597 188.259 -171.511C168.854 -182.431 144.894 -190.346 120.056 -194.49C96.2093 -198.497 70.4851 -199.244 45.3625 -196.706" stroke="#C9EBDA" stroke-opacity="0.5" stroke-width="2.85875"/>
<path d="M69.6654 -234.512C99.0083 -235.231 129.016 -233.363 157.536 -228.926C187.643 -224.28 217.854 -216.563 246.035 -205.929C277.684 -194.05 307.765 -177.92 334.059 -158.135C365.053 -134.799 392.17 -105.298 409.721 -70.9933C420.296 -50.9188 427.624 -29.2519 431.193 -6.40909C435.182 19.2246 434.418 46.2923 428.131 73.9389C421.083 104.996 407.124 136.42 385.598 166.563C361.665 200.045 328.975 231.052 287.713 256.881C243.592 284.975 192.298 306.293 136.308 319.022C78.5176 332.14 18.7508 335.501 -39.3831 328.503C-96.1418 321.65 -147.812 305.063 -191.675 280.836C-232.575 258.233 -264.993 229.854 -288.139 197.869" stroke="#C9EBDA" stroke-opacity="0.5" stroke-width="2.85875"/>
</g>
</g>
<g clip-path="url(#clip2_20_3837)">
<mask id="mask1_20_3837" style="mask-type:luminance" maskUnits="userSpaceOnUse" x="702" y="-126" width="1917" height="1916">
<path d="M702.99 -125.607H2618.14V1789.54H702.99V-125.607Z" fill="white"/>
</mask>
<g mask="url(#mask1_20_3837)">
<path d="M1824.11 378.291C1847.38 351.253 1860.97 320.285 1865.17 289.1C1868.83 262.399 1865.55 235.705 1857.19 211.472C1849.87 190.179 1838.35 170.121 1824.13 152.664C1811.26 136.848 1795.88 122.683 1779.16 110.802C1763.47 99.6403 1746.05 90.09 1727.99 82.6592C1710.34 75.3913 1691.64 69.9171 1672.7 66.3996C1653.43 62.7864 1633.39 61.2607 1613.62 61.8193C1592.79 62.4098 1571.5 65.324 1551.18 70.8205" stroke="#04382E" stroke-opacity="0.13" stroke-width="2.01729"/>
<path d="M1734.08 415.995C1775.44 400.776 1807.55 375.116 1828.43 344.825C1846.45 318.648 1855.6 289.738 1856.11 261.053C1856.64 236.376 1851.11 212.325 1841.07 190.48C1832.16 171.14 1819.45 153.204 1804.45 137.819C1778.19 110.672 1741.73 89.1585 1704.55 77.5623C1686.33 71.8169 1666.95 67.8877 1647.59 66.18C1627.64 64.3925 1607.01 64.8776 1587.04 67.7056" stroke="#04382E" stroke-opacity="0.13" stroke-width="2.01729"/>
<path d="M1814.14 337.422C1833.07 313.636 1843.37 286.537 1845.46 259.54C1847.27 236.076 1842.99 212.858 1834.07 191.673C1826.26 172.815 1814.34 155.301 1800.14 140.169C1787.1 126.268 1771.72 113.934 1755.02 103.899C1723.99 85.0313 1685.27 72.7426 1648.06 69.589C1628.57 67.8653 1608.56 68.491 1589.19 71.4084C1568.45 74.5333 1547.7 80.3969 1528.73 89.1459" stroke="#04382E" stroke-opacity="0.13" stroke-width="2.01729"/>
<path d="M1762.72 360.03C1795.72 340.263 1818.18 312.621 1828.69 282.537C1837.76 256.817 1837.8 229.695 1830.82 204.836C1824.81 183.157 1813.2 162.655 1798.08 145.23C1784.41 129.424 1767.4 115.542 1748.86 104.601C1714.5 84.1148 1669.72 72.1099 1628.43 72.2535C1606.28 72.2535 1583.6 75.4264 1562.49 81.8102C1539.21 88.8101 1516.96 100.084 1498.57 115.032" stroke="#04382E" stroke-opacity="0.13" stroke-width="2.01729"/>
<path d="M1532.95 99.8669C1550.49 90.1028 1570.42 83.387 1590.61 79.6334C1609.45 76.1382 1629.15 75.1008 1648.37 76.6585C1685.06 79.4354 1723.62 92.2255 1753.16 111.91C1769.14 122.459 1783.61 135.387 1795.15 149.855C1807.78 165.675 1817.27 183.853 1822.1 202.912C1827.6 224.425 1827.42 247.477 1820.13 269.469C1811.86 294.663 1794.49 318.143 1768.89 336.196" stroke="#04382E" stroke-opacity="0.13" stroke-width="2.01729"/>
<path d="M1528.32 110.203C1545.74 98.1276 1566.55 89.5062 1588.05 84.68C1607.92 80.2145 1629.15 78.8133 1649.64 80.4475C1669.48 81.9924 1689.59 86.4483 1708.01 93.2918C1726.75 100.241 1744.67 110.049 1759.91 121.933C1776.21 134.589 1790.23 150.146 1800 167.226C1810.92 186.247 1816.86 207.799 1816.21 229.44C1815.53 254.263 1805.91 279.227 1787.06 300.201C1765.65 324.227 1733.23 342.038 1694.38 348.951" stroke="#04382E" stroke-opacity="0.13" stroke-width="2.01729"/>
<path d="M1714.01 297.545C1739.32 289.128 1759.48 274.538 1772.16 256.762C1783.63 240.784 1788.76 222.609 1787.92 204.517C1787.21 188.184 1781.73 172.189 1772.53 157.889C1764.08 144.71 1752.28 132.699 1738.66 122.957C1725.67 113.65 1710.64 106.12 1694.84 100.92C1679.12 95.7365 1662.24 92.6531 1645.71 92.0435C1628.57 91.3221 1611.22 93.349 1595.18 97.8273C1578.04 102.618 1561.85 110.368 1548.99 120.895" stroke="#04382E" stroke-opacity="0.13" stroke-width="2.01729"/>
<path d="M1518.2 128.419C1531.39 114.671 1548.29 103.784 1566.88 96.3656C1583.9 89.5445 1602.77 85.4461 1621.59 84.1694C1639.51 82.9373 1658.03 84.2237 1675.64 87.8497C1693.13 91.4374 1710.37 97.3614 1725.88 105.261C1758.63 121.77 1787.07 149.658 1799.16 180.846C1806.33 198.967 1808.67 218.846 1804.99 238.074C1800.87 259.83 1788.97 280.794 1769.66 297.744" stroke="#04382E" stroke-opacity="0.13" stroke-width="2.01729"/>
<path d="M1776.89 271.011C1789.77 254.793 1796.47 236.181 1797.24 217.489C1797.9 200.652 1793.9 183.782 1786.03 168.525C1772.43 141.614 1745.36 118.099 1715.02 104.486C1700.46 97.8817 1684.34 93.0364 1668.21 90.3456C1651.89 87.6133 1634.88 87.01 1618.5 88.7017C1601.21 90.4062 1584.29 94.7759 1569.06 101.485C1552.55 108.757 1537.57 118.974 1526.27 131.777" stroke="#04382E" stroke-opacity="0.13" stroke-width="2.01729"/>
<path d="M1544.97 135.728C1556.59 121.725 1573.04 111.029 1591.69 104.435C1608.85 98.335 1628.35 95.5931 1647.28 96.3305C1665.53 96.9944 1684.52 101.019 1701.42 107.671C1718.59 114.416 1734.59 124.343 1747.23 136.332C1760.79 149.137 1770.94 164.698 1775.63 181.041C1780.92 199.257 1779.75 219.021 1770.95 236.446C1761.16 256.169 1741.92 273.054 1716.04 282.793C1687.95 293.46 1654.45 294.935 1622.03 286.313" stroke="#04382E" stroke-opacity="0.13" stroke-width="2.01729"/>
<path d="M1634.85 481.725C1667.68 481.984 1699.55 476.596 1728.93 466.439C1756.65 456.831 1781.38 443.196 1802.23 426.428C1821.54 410.996 1837.23 393.239 1849.19 374.17C1860.12 356.717 1867.83 338.328 1872.38 319.665C1876.64 302.611 1878.11 285.413 1877.25 268.652C1876.45 253.283 1873.7 238.24 1869.34 223.882C1861.57 198.309 1848.52 174.507 1831.66 153.957C1816.9 135.699 1798.78 119.609 1779.32 106.429C1761.14 94.1182 1740.98 83.7955 1720.01 76.1923C1699.57 68.7137 1677.86 63.4374 1655.9 60.6637C1633.34 57.8197 1609.78 57.5898 1586.87 60.1337" stroke="#04382E" stroke-opacity="0.13" stroke-width="2.01729"/>
<path d="M1619.45 115.842C1598.7 120.902 1580.3 132.9 1571.04 148.825C1560.21 166.817 1560.84 189.933 1574.57 210.039C1589.31 232.258 1618.45 248.732 1650.32 252.284C1681.75 256.054 1711.54 246.986 1729.21 229.848" stroke="#04382E" stroke-opacity="0.13" stroke-width="2.01729"/>
<path d="M1645.04 116.723C1624.62 117.196 1604.56 123.889 1591.06 135.588C1576.08 148.442 1568.92 167.501 1574.13 186.751C1579.51 208.06 1599.33 227.943 1626.79 237.672C1654.27 247.745 1685.91 246.149 1708.25 234.061" stroke="#04382E" stroke-opacity="0.13" stroke-width="2.01729"/>
<path d="M1621.08 125.188C1603.28 130.918 1588.94 143.092 1583.71 158.148C1577.58 174.944 1582.83 194.877 1598.78 210.451C1615.63 227.218 1642.57 236.953 1668.82 235.724C1694.06 234.706 1715.32 223.617 1725.46 207.594" stroke="#04382E" stroke-opacity="0.13" stroke-width="2.01729"/>
<path d="M1637.77 126.088C1618.2 128.913 1600.84 139.514 1593.8 154.215C1585.51 170.533 1590.28 191.357 1607.34 206.713C1625.21 223.289 1654.29 231.166 1679.64 226.365C1703.59 222.114 1720.77 207.179 1724.24 189.508" stroke="#04382E" stroke-opacity="0.13" stroke-width="2.01729"/>
<path d="M1712.95 196.754C1705.18 210.023 1687.65 219.232 1667.1 219.893C1645.87 220.726 1623.89 212.423 1610.9 198.603C1598.41 185.653 1595.1 169.17 1601.42 155.895C1606.97 143.698 1620.37 134.483 1636.25 131.17" stroke="#04382E" stroke-opacity="0.13" stroke-width="2.01729"/>
<path d="M1707.79 189.413C1701.99 202.596 1685.37 212.111 1665.7 212.449C1645.43 213.046 1624.63 203.991 1614.24 190.032C1604.11 177.009 1604.28 161.283 1613.57 150.172C1621.82 139.891 1637.7 133.804 1653.87 134.11" stroke="#04382E" stroke-opacity="0.13" stroke-width="2.01729"/>
<path d="M1652.06 148.838C1643.16 149.875 1635.56 154.411 1632.53 160.734C1629.14 167.392 1630.95 175.519 1637.34 181.899C1643.63 188.392 1654.62 192.257 1664.64 191.676C1674.56 191.239 1683.19 186.397 1686.43 179.79" stroke="#04382E" stroke-opacity="0.13" stroke-width="2.01729"/>
<path d="M1702.53 180.399C1700.53 191.219 1690.58 200.393 1676.52 203.777C1662.05 207.482 1644.38 204.338 1631.87 195.947C1619.56 187.89 1613.18 175.474 1615.13 164.481C1616.79 154.104 1625.45 145.364 1637.42 141.426" stroke="#04382E" stroke-opacity="0.13" stroke-width="2.01729"/>
<path d="M1636.69 147.787C1628.04 152.106 1622.62 160.051 1622.88 168.519C1623.03 177.424 1629.54 186.802 1639.85 192.436C1650.33 198.255 1664.04 200.013 1675.09 196.799C1685.93 193.779 1693.48 186.601 1695.21 178.091" stroke="#04382E" stroke-opacity="0.13" stroke-width="2.01729"/>
<path d="M1680.34 174.337C1678.85 180.427 1671.67 184.985 1663.18 185.289C1659.07 185.483 1654.41 184.593 1650.51 182.863C1646.68 181.168 1643.45 178.611 1641.35 175.582C1639.28 172.597 1638.41 169.345 1638.82 166.309C1639.2 163.277 1640.88 160.356 1643.38 158.291C1648.36 154.036 1657.09 152.559 1664.72 154.675" stroke="#04382E" stroke-opacity="0.13" stroke-width="2.01729"/>
<path d="M1665.21 110.298C1640.44 106.324 1613.64 109.896 1593.33 120.474C1570.19 132.3 1554.6 153.341 1554.38 177.341C1553.82 204.945 1573.7 233.711 1607.9 249.759C1642.67 266.606 1685.92 266.424 1716.09 250.254" stroke="#04382E" stroke-opacity="0.13" stroke-width="2.01729"/>
</g>
</g>
<g clip-path="url(#clip3_20_3837)">
<mask id="mask2_20_3837" style="mask-type:luminance" maskUnits="userSpaceOnUse" x="226" y="869" width="2715" height="2715">
<path d="M226 870H2940V3584H226V870Z" fill="white"/>
</mask>
<g mask="url(#mask2_20_3837)">
<path d="M1466.81 2475.58C1438.34 2447.01 1415.79 2412.49 1401.35 2374.7C1386.83 2336.95 1380.48 2296.1 1382.58 2255.95C1384.61 2215.69 1395.25 2175.68 1413.6 2139.69C1431.94 2103.68 1457.83 2071.64 1489.14 2046.2C1520.4 2020.72 1557.12 2001.8 1596.19 1991.3C1635.3 1980.73 1676.26 1978.54 1716.18 1984.64C1796.38 1996.59 1869.98 2044.24 1914.05 2111.94" stroke="#04382E" stroke-opacity="0.08" stroke-width="2.85875"/>
<path d="M1550.42 2519.44C1478.58 2484.64 1423.6 2417.47 1404.04 2339.9C1394.15 2301.21 1392.73 2260.71 1399.79 2221.47C1406.88 2182.23 1422.65 2144.57 1445.6 2112.03C1491.09 2046.61 1566.24 2002.63 1645.86 1995.67C1685.42 1991.98 1725.88 1996.72 1763.52 2010.02C1801.17 2023.19 1835.79 2044.71 1864.34 2072.42" stroke="#04382E" stroke-opacity="0.08" stroke-width="2.85875"/>
<path d="M1471.91 2442.33C1446.98 2413.3 1428.44 2378.74 1418.18 2341.8C1407.89 2304.84 1405.82 2265.82 1412.04 2228.03C1424.06 2152.12 1471.55 2083.16 1537.68 2044.36C1603.59 2004.79 1686.82 1996.73 1759.16 2022.44C1831.74 2047.57 1891.53 2106 1918.34 2177.98" stroke="#04382E" stroke-opacity="0.08" stroke-width="2.85875"/>
<path d="M1525.66 2473.99C1491.7 2449.5 1463.98 2416.44 1445.98 2378.6C1427.88 2340.81 1419.7 2298.37 1422.12 2256.63C1424.41 2214.82 1437.53 2173.62 1459.84 2138.18C1482.05 2102.68 1513.31 2072.94 1549.88 2052.52C1622.94 2010.92 1717.01 2010.26 1790.69 2050.73C1827.56 2070.62 1859.22 2099.93 1881.98 2135.07C1904.83 2170.16 1918.52 2211.18 1921.43 2252.94" stroke="#04382E" stroke-opacity="0.08" stroke-width="2.85875"/>
<path d="M1898.42 2201.03C1877.13 2130.64 1821.03 2072.05 1751.64 2047.72C1682.55 2022.66 1601.97 2032.22 1540.98 2073.37C1510.41 2093.64 1484.64 2121.08 1466.34 2152.87C1448.03 2184.64 1437.28 2220.74 1435.26 2257.37C1433.15 2293.98 1439.58 2331.08 1454.16 2364.74C1468.63 2398.45 1491.15 2428.64 1519.21 2452.25" stroke="#04382E" stroke-opacity="0.08" stroke-width="2.85875"/>
<path d="M1891.39 2226.81C1883.88 2188.91 1866.16 2153.14 1840.74 2124.01C1815.37 2094.84 1782.36 2072.35 1745.88 2059.65C1709.46 2046.83 1669.58 2043.8 1631.57 2050.74C1593.55 2057.63 1557.44 2074.63 1527.9 2099.59C1498.27 2124.43 1475.26 2157.07 1461.88 2193.31C1448.42 2229.51 1444.76 2269.31 1451.01 2307.45C1457.19 2345.59 1473.59 2381.98 1498.01 2411.96C1522.34 2442.01 1554.58 2465.59 1590.58 2479.61" stroke="#04382E" stroke-opacity="0.08" stroke-width="2.85875"/>
<path d="M1577.52 2429.36C1551.15 2413.67 1528.76 2391.17 1513.15 2364.74C1497.48 2338.35 1488.67 2308.16 1487.67 2277.38C1486.59 2246.5 1493.24 2215.77 1507.04 2188.38C1520.75 2160.96 1541.57 2137 1566.81 2119.5C1592.02 2101.93 1621.52 2090.9 1652.05 2087.69C1682.72 2084.41 1714.03 2088.8 1742.28 2100.54C1799.28 2123.58 1842.84 2177.37 1853.27 2237.83" stroke="#04382E" stroke-opacity="0.08" stroke-width="2.85875"/>
<path d="M1882.55 2268.69C1882.25 2234.56 1873.55 2200.7 1857.28 2170.77C1841.08 2140.81 1817.45 2114.86 1789.14 2095.91C1760.87 2076.89 1727.98 2064.93 1694.09 2061.45C1660.15 2057.91 1625.42 2062.56 1593.84 2075.22C1530.29 2100.1 1480.78 2157.97 1466.32 2224.63C1458.85 2257.81 1459.59 2293.02 1468.43 2325.83C1477.22 2358.69 1494.25 2389.32 1517.47 2414.28" stroke="#04382E" stroke-opacity="0.08" stroke-width="2.85875"/>
<path d="M1508.05 2381.33C1490.81 2355.84 1479.75 2326.38 1475.93 2295.88C1472.12 2265.31 1475.36 2233.84 1485.68 2204.96C1505.85 2146.84 1555.23 2099.59 1614.16 2082.03C1643.44 2073.04 1675.14 2071.12 1705.42 2076.3C1735.7 2081.45 1764.68 2093.81 1789.38 2112.18C1839.23 2148.69 1869.92 2209.2 1869.41 2270.98" stroke="#04382E" stroke-opacity="0.08" stroke-width="2.85875"/>
<path d="M1843.05 2269.11C1842.77 2235.36 1832.38 2202.31 1813.37 2174.57C1794.46 2146.81 1767.13 2124.74 1736.11 2112.24C1705.27 2099.63 1670.12 2096.55 1637.28 2103.28C1604.51 2109.92 1573.83 2126.62 1550.2 2150.6C1526.49 2174.49 1510.14 2205.33 1503.85 2238.19C1497.44 2271.12 1500.9 2306.2 1513.85 2336.91C1526.69 2367.79 1549.05 2394.9 1577.03 2413.49C1604.96 2432.19 1638.12 2442.2 1671.89 2442.16" stroke="#04382E" stroke-opacity="0.08" stroke-width="2.85875"/>
<path d="M1619.76 2569.35C1573.62 2561.36 1529.36 2542.39 1491.86 2514.53C1454.28 2486.73 1423.28 2450.23 1402.01 2408.52C1358.89 2324.93 1358.05 2222 1399.86 2137.75C1440.69 2053.35 1522.49 1990.52 1615.01 1973.47C1661.02 1964.72 1708.62 1966.7 1753.85 1979.35C1798.99 1991.99 1840.97 2015.34 1875.52 2046.78" stroke="#04382E" stroke-opacity="0.08" stroke-width="2.85875"/>
<path d="M1762.81 2184.61C1787.79 2209.35 1801.65 2245.42 1799.58 2280.48C1797.96 2315.77 1780.46 2350.02 1753.06 2372.05C1725.85 2394.48 1688.62 2404.5 1653.96 2398.95C1618.91 2393.67 1586.78 2372.91 1567.57 2343.38" stroke="#04382E" stroke-opacity="0.08" stroke-width="2.85875"/>
<path d="M1724.11 2169.97C1754.18 2184.56 1777.12 2212.59 1785.36 2245.11C1793.74 2277.37 1787.4 2313.19 1767.94 2340.45C1748.95 2367.81 1717.47 2386.2 1684.14 2389.14C1651.1 2392.47 1616.46 2380.4 1592.75 2357.01" stroke="#04382E" stroke-opacity="0.08" stroke-width="2.85875"/>
<path d="M1752.95 2205.65C1773.02 2228.69 1781.97 2261.01 1776.82 2291.04C1772.01 2321.33 1753.11 2348.78 1726.76 2364.24C1700.45 2380.02 1667.35 2383.22 1638.5 2372.97C1609.54 2362.94 1585.78 2339.69 1575.06 2310.99" stroke="#04382E" stroke-opacity="0.08" stroke-width="2.85875"/>
<path d="M1728.33 2197.52C1754.14 2215.74 1769.43 2247.8 1767.3 2279.33C1765.81 2310.98 1746.89 2340.94 1719.21 2356.17C1691.68 2371.86 1656.31 2372.08 1628.54 2356.86C1600.62 2342.02 1581.31 2312.33 1579.33 2280.72" stroke="#04382E" stroke-opacity="0.08" stroke-width="2.85875"/>
<path d="M1593.52 2298.55C1601.03 2323.33 1620.78 2343.94 1645.2 2352.53C1669.51 2361.33 1697.88 2357.99 1719.35 2343.5C1740.99 2329.31 1755.29 2304.6 1756.57 2278.72C1758.21 2252.9 1746.97 2226.65 1727.02 2210.12" stroke="#04382E" stroke-opacity="0.08" stroke-width="2.85875"/>
<path d="M1602.01 2288.28C1606.74 2312.96 1625.43 2334.45 1649.25 2342.54C1672.94 2351 1700.91 2346.02 1720.01 2329.58C1739.48 2313.49 1749.32 2286.98 1744.98 2262.09C1741.13 2237.25 1723.19 2215.14 1699.66 2206.22" stroke="#04382E" stroke-opacity="0.08" stroke-width="2.85875"/>
<path d="M1693.93 2239.21C1705.66 2246.12 1713.31 2259.04 1713.63 2272.51C1714.23 2286.16 1707.5 2299.36 1696.27 2307.14C1685.44 2314.95 1670.17 2316.47 1657.85 2311.3C1645.38 2306.3 1635.76 2294.34 1633.54 2281.23" stroke="#04382E" stroke-opacity="0.08" stroke-width="2.85875"/>
<path d="M1611.37 2274.6C1611.37 2294.73 1622.02 2314.27 1638.82 2325.4C1655.32 2336.73 1677.67 2338.98 1696.2 2331.46C1714.85 2324.17 1729.46 2307.1 1733.67 2287.57C1738.18 2267.93 1732.49 2246.46 1718.65 2231.83" stroke="#04382E" stroke-opacity="0.08" stroke-width="2.85875"/>
<path d="M1715.73 2245.36C1724.71 2258.43 1726.9 2276.08 1721.5 2291.04C1716.3 2306.03 1703.42 2318.35 1688.24 2322.88C1673 2327.56 1655.54 2324.7 1642.85 2315.08C1629.89 2305.53 1622.02 2289.98 1622.1 2273.93" stroke="#04382E" stroke-opacity="0.08" stroke-width="2.85875"/>
<path d="M1643.64 2274.27C1643.5 2285.95 1651.32 2297.13 1662.16 2301.43C1667.34 2303.58 1673.63 2304.14 1679.31 2302.98C1684.91 2301.84 1690.2 2298.99 1694.34 2294.78C1698.49 2290.58 1701.28 2285.28 1702.36 2279.66C1703.49 2273.95 1702.87 2267.7 1700.66 2262.53C1696.23 2251.68 1684.97 2244.09 1673.27 2244.28" stroke="#04382E" stroke-opacity="0.08" stroke-width="2.85875"/>
<path d="M1696.86 2138.75C1738.99 2145.81 1776.43 2173.68 1795.53 2211.61C1815.12 2249.59 1815.46 2296.03 1796.52 2334.31C1778.02 2372.57 1741.01 2400.94 1699.01 2408.73C1657.6 2416.98 1612.14 2404.29 1581 2375.52" stroke="#04382E" stroke-opacity="0.08" stroke-width="2.85875"/>
</g>
</g>
<g clip-path="url(#clip4_20_3837)">
<mask id="mask3_20_3837" style="mask-type:luminance" maskUnits="userSpaceOnUse" x="-2011" y="2964" width="2715" height="2714">
<path d="M-2011 2964H703V5678H-2011V2964Z" fill="white"/>
</mask>
<g mask="url(#mask3_20_3837)">
<path d="M108.877 3676.43C87.3147 3644.49 74.7353 3608.1 70.4698 3570.97C66.7652 3539.21 69.0857 3506.35 75.9883 3475.17C82.122 3447.31 92.2407 3419.53 105.164 3393.7C117.191 3369.67 132.032 3346.41 148.719 3325.08C164.881 3304.41 183.44 3284.67 203.379 3267.01C223.553 3249.12 245.726 3232.78 269.031 3218.64C293.678 3203.65 320.348 3190.93 347.737 3181.17C377.826 3170.46 409.951 3162.92 441.917 3160.05" stroke="#7BC0AD" stroke-opacity="0.25" stroke-width="2.85875"/>
<path d="M198.964 3723.54C155.961 3703.7 124.347 3672.06 104.354 3635.61C87.5543 3604.92 78.8831 3570.69 77.8834 3535.83C76.9516 3505.7 81.4207 3475.06 90.1055 3445.78C97.9715 3419.32 109.606 3393.15 123.818 3368.96C149.718 3324.58 188.162 3281.7 230.342 3249.77C252.176 3233.16 276.281 3218.13 301.318 3205.94C328.177 3192.84 357.095 3182.47 386.271 3175.92" stroke="#7BC0AD" stroke-opacity="0.25" stroke-width="2.85875"/>
<path d="M117.54 3625.55C99.5821 3597.62 89.7483 3565.39 87.3691 3532.46C85.3064 3503.77 88.7577 3474.17 96.5514 3445.75C103.499 3420.02 114.514 3394.49 128.066 3370.78C140.867 3348.42 156.422 3326.8 173.9 3307.21C207.92 3268.75 253.47 3234.04 300.689 3211.46C326.861 3198.81 354.838 3189.17 383.019 3183.25C414.479 3176.64 447.318 3174.45 478.538 3178.32" stroke="#7BC0AD" stroke-opacity="0.25" stroke-width="2.85875"/>
<path d="M168.415 3651.18C135.223 3627.84 113.366 3594.99 103.084 3558.67C94.3135 3527.96 93.7934 3494.22 99.7913 3461.68C105.043 3432.87 115.732 3403.69 130.175 3376.84C143.618 3351.79 160.947 3327.52 180.533 3305.94C218.769 3263.52 272.782 3225.85 327.007 3205.68C358.051 3194.01 391.307 3186.77 423.635 3185.51C460.998 3183.99 498.356 3190.61 530.395 3206.53" stroke="#7BC0AD" stroke-opacity="0.25" stroke-width="2.85875"/>
<path d="M471.09 3199.59C442.548 3192.76 411.242 3192.66 380.773 3197.57C353.479 3201.99 326 3210.54 300.239 3222.54C253.74 3243.91 208.384 3278.87 175.97 3317.61C159.206 3337.5 144.51 3359.51 133.143 3382.1C121.002 3406.21 112.177 3432 107.912 3457.42C103.113 3485.75 103.678 3514.71 110.847 3541.21C119.044 3571.84 136.101 3599.74 161.857 3620.72" stroke="#7BC0AD" stroke-opacity="0.25" stroke-width="2.85875"/>
<path d="M478.546 3215.02C450.027 3203.84 417.11 3200.78 384.484 3204.49C355.598 3207.75 325.97 3216.4 298.545 3229C273.056 3240.67 248.236 3256.3 226.352 3274.09C204.894 3291.52 185.131 3312 168.884 3333.71C152.03 3356.16 138.039 3381.08 128.603 3406.21C118.276 3433.59 112.957 3462.55 113.907 3490C114.965 3521.36 124.5 3551.59 143.173 3576.05C165.034 3604.92 199.362 3625.72 243.012 3632.32" stroke="#7BC0AD" stroke-opacity="0.25" stroke-width="2.85875"/>
<path d="M220.357 3563.59C192.393 3555.57 170.903 3539 157.631 3517.57C145.844 3498.65 140.483 3475.92 141.071 3452.1C141.569 3430.49 146.889 3407.97 156.107 3386.38C164.733 3366.1 177.109 3345.96 191.805 3327.87C206.189 3310.13 223.342 3293.66 241.933 3279.81C261.035 3265.56 282.218 3253.52 303.658 3245.03C326.664 3235.79 350.755 3230.51 373.756 3229.7C399.2 3228.81 423.983 3233.38 444.157 3244.55" stroke="#7BC0AD" stroke-opacity="0.25" stroke-width="2.85875"/>
<path d="M495.215 3241.45C473.24 3224.52 445.743 3214.97 416.445 3212.5C390.59 3210.28 362.921 3213.5 336.328 3221.07C311.947 3227.97 287.639 3238.76 265.343 3252.25C243.971 3265.18 223.616 3280.93 205.902 3298.31C170.236 3333.06 141.2 3379.54 129.63 3423.78C122.913 3448.96 120.945 3475.03 124.776 3498.98C129.087 3526.16 141.042 3551.34 160.646 3570.85" stroke="#7BC0AD" stroke-opacity="0.25" stroke-width="2.85875"/>
<path d="M153 3536.96C139.901 3517.91 133.043 3495.02 132.03 3470.98C131.139 3449.27 134.853 3426.33 142.497 3404.25C156.017 3364.45 184.446 3323.43 218.276 3293.02C235.248 3277.67 254.621 3263.78 274.642 3252.7C295.58 3241.09 318.142 3232.09 340.583 3226.72C365.117 3220.74 389.914 3219.12 412.965 3222.24C438.762 3225.76 462.835 3235.29 481.34 3251.57" stroke="#7BC0AD" stroke-opacity="0.25" stroke-width="2.85875"/>
<path d="M450.259 3267.78C431.998 3249.82 406.645 3240.2 378.777 3238.71C354.043 3237.33 326.926 3242.39 301.559 3252.36C278.028 3261.54 254.403 3275.69 234.138 3292.3C214.236 3308.58 196.31 3328.39 182.581 3349.32C168.238 3371.11 157.821 3395.06 153.193 3418.16C148.046 3443.6 149.48 3469.38 158.639 3490.59C168.966 3514.94 189.466 3534.34 217.999 3543.62C250.459 3554.3 291.417 3551.47 333.747 3533.42" stroke="#7BC0AD" stroke-opacity="0.25" stroke-width="2.85875"/>
<path d="M315.326 3818.76C274.603 3815.65 237.358 3805.41 204.835 3789.64C175.592 3775.47 150.559 3757.02 130.128 3735.52C111.767 3716.32 97.1525 3694.83 86.111 3672.13C76.1778 3651.66 69.135 3630.16 64.8423 3608.26C57.2115 3570.13 58.3152 3530.22 65.548 3492.59C71.8535 3459.82 83.0443 3427.44 98.1296 3397.33C124.311 3344.43 165.97 3292.89 212.393 3254.42C236.213 3234.6 262.607 3216.65 290.48 3201.62C320.438 3185.48 353.241 3172.22 386.668 3163.28" stroke="#7BC0AD" stroke-opacity="0.25" stroke-width="2.85875"/>
<path d="M338.971 3270.13C368.3 3268.73 395.21 3279.76 408.915 3301.78C425.254 3326.9 423.747 3365.37 402.343 3402.91C380.197 3442.79 338.967 3475.79 296.854 3488.28C257.841 3500.22 222.939 3493.33 203.004 3473.28" stroke="#7BC0AD" stroke-opacity="0.25" stroke-width="2.85875"/>
<path d="M304.405 3282.71C331.834 3274.56 359.834 3276.2 379.189 3288.98C401.276 3303.34 411.784 3331.6 403.475 3365.05C395.002 3401.32 365.859 3438.8 327.79 3461C291.834 3482.46 252.848 3486.93 226.635 3474.61" stroke="#7BC0AD" stroke-opacity="0.25" stroke-width="2.85875"/>
<path d="M336.621 3285.55C361.577 3286.86 382.189 3300.19 389.667 3322.37C398.51 3347.17 390.313 3381.28 366.901 3411.21C343.072 3442.15 306.93 3463.77 273.634 3468.16C243.147 3472.41 218.531 3461.59 207.023 3441.71" stroke="#7BC0AD" stroke-opacity="0.25" stroke-width="2.85875"/>
<path d="M313.972 3294.05C340.574 3290.16 364.941 3299.54 374.892 3320.15C386.789 3343.09 379.438 3378.21 354.827 3408.01C330.043 3438.72 291.862 3458.03 260.384 3457.16C231.969 3456.77 212.279 3439.99 208.275 3416.26" stroke="#7BC0AD" stroke-opacity="0.25" stroke-width="2.85875"/>
<path d="M221.093 3423.4C230.076 3440.1 250.725 3448.85 275.794 3444.66C302.73 3440.39 331.933 3421.77 349.936 3396.48C367.78 3371.98 372.783 3344.58 363.877 3325.89C356.137 3308.78 337.514 3299.83 315.965 3301.26" stroke="#7BC0AD" stroke-opacity="0.25" stroke-width="2.85875"/>
<path d="M226.994 3411.65C233.77 3428.77 253.455 3438.05 277.547 3433.4C303.348 3428.79 331.013 3409.08 345.397 3384.24C359.763 3360.35 359.731 3335.56 346.776 3321.69C335.454 3308.89 314.018 3305.9 292.804 3312.81" stroke="#7BC0AD" stroke-opacity="0.25" stroke-width="2.85875"/>
<path d="M295.08 3334.39C306.678 3332.65 316.715 3336.74 320.719 3345.33C325.233 3354.35 322.731 3367.47 314.146 3379.36C305.823 3391.22 291.597 3400.4 278.918 3402.55C266.592 3404.82 256.076 3400.31 252.145 3391.69" stroke="#7BC0AD" stroke-opacity="0.25" stroke-width="2.85875"/>
<path d="M233.063 3397.34C235.447 3412.19 247.203 3422.59 264.188 3423.66C282.137 3425.1 304.772 3415.44 321.341 3399C338.073 3382.68 347.033 3361.18 344.441 3344.72C342.248 3329.11 330.432 3318.88 314.329 3317.52" stroke="#7BC0AD" stroke-opacity="0.25" stroke-width="2.85875"/>
<path d="M315.26 3327C326.853 3330.34 334.167 3340.6 333.72 3353.84C333.439 3367.68 324.528 3384.29 310.773 3396.14C297.085 3408.07 279.652 3414.66 265.955 3413.09C252.765 3411.78 243.746 3403.59 241.674 3391.88" stroke="#7BC0AD" stroke-opacity="0.25" stroke-width="2.85875"/>
<path d="M259.531 3381.9C261.354 3390.32 270.174 3394.81 280.768 3392.66C285.97 3391.69 291.909 3388.9 296.925 3385.08C301.887 3381.3 306.126 3376.38 308.899 3371.1C311.653 3365.86 312.816 3360.61 312.305 3356.12C311.816 3351.64 309.627 3347.78 306.343 3345.55C299.852 3340.9 288.607 3341.83 278.909 3347.71" stroke="#7BC0AD" stroke-opacity="0.25" stroke-width="2.85875"/>
<path d="M278.4 3281.46C310.547 3264.68 347.15 3258.06 376.113 3265.55C410.567 3274.1 434.369 3302.02 434.143 3342.02C434.338 3387.6 403.199 3440.74 353.505 3474.87C306.621 3507.86 252.843 3515.77 217.783 3498.75" stroke="#7BC0AD" stroke-opacity="0.25" stroke-width="2.85875"/>
</g>
</g>
<g clip-path="url(#clip5_20_3837)">
<mask id="mask4_20_3837" style="mask-type:luminance" maskUnits="userSpaceOnUse" x="-174" y="-193" width="2715" height="2715">
<path d="M-174 -192H2540V2522H-174V-192Z" fill="white"/>
</mask>
<g mask="url(#mask4_20_3837)">
<path d="M88.8734 1337.6C69.9387 1317.32 57.2553 1296.21 50.3527 1275.18C44.2009 1256.42 42.7127 1237.9 45.3906 1220.12C49.7646 1190.02 66.0622 1162.34 89.0226 1139.17C107.966 1120.01 132.257 1103.26 158.831 1089.74C181.837 1078.03 207.29 1068.3 233.344 1060.76C256.997 1053.92 282.142 1048.59 307.296 1044.96C331.283 1041.5 356.049 1039.43 380.619 1038.74C429.675 1037.33 484 1041.91 532.843 1052.2" stroke="#04382E" stroke-opacity="0.03" stroke-width="2.85875"/>
<path d="M263.285 1394.88C221.427 1382.87 185.262 1366.59 155.73 1347.58C128.707 1330.14 107.977 1310.88 93.5022 1290.86C80.4704 1272.84 72.6858 1254.48 69.7773 1236.45C67.1583 1220.28 68.4655 1204.48 73.2874 1189.39C81.366 1163.64 98.9709 1140.45 122.23 1120.98C141.775 1104.65 165.907 1090.59 191.848 1079.41C214.578 1069.52 239.791 1061.51 265.335 1055.51C288.96 1049.96 313.897 1045.89 338.879 1043.52C362.957 1041.21 388.039 1040.26 412.745 1040.82C437.85 1041.38 463.628 1043.49 488.611 1047.09" stroke="#04382E" stroke-opacity="0.03" stroke-width="2.85875"/>
<path d="M124.165 1281.61C96.2604 1250.92 86.9921 1218.38 92.8905 1188.44C97.7124 1164 112.422 1141.58 133.248 1122.62C150.667 1106.59 173.275 1092.76 197.841 1081.65C219.53 1071.85 243.549 1063.79 268.373 1057.8C312.544 1046.99 364.327 1041.93 412.283 1043.08C436.886 1043.63 462.017 1045.78 486.371 1049.39C512.312 1053.25 538.566 1058.94 563.186 1066.48" stroke="#04382E" stroke-opacity="0.03" stroke-width="2.85875"/>
<path d="M217.132 1313C186.858 1298.94 162.807 1282.36 145.41 1264.5C129.687 1248.35 119.709 1231.46 115.231 1214.65C107.455 1186.04 116.022 1158.31 134.934 1134.95C150.386 1115.75 173.437 1099 199.989 1085.91C222.954 1074.54 249.519 1065.38 276.917 1058.87C325.357 1047.2 384.532 1042.88 437.337 1046.6C465.196 1048.5 493.739 1052.58 520.639 1058.69C550.316 1065.4 579.619 1075.04 605.32 1087.1" stroke="#04382E" stroke-opacity="0.03" stroke-width="2.85875"/>
<path d="M559.952 1073.62C536.675 1065.38 511.06 1059.11 485.498 1054.85C461.57 1050.87 436.606 1048.47 412.162 1047.87C364.562 1046.56 312.635 1052.14 270.147 1063.91C246.137 1070.49 223.199 1079.28 203.55 1089.91C181.168 1102.01 162.216 1116.98 149.736 1133.83C134.813 1153.85 128.449 1176.97 134.664 1200.69C141.992 1229.38 167.264 1258.09 210.575 1281.55" stroke="#04382E" stroke-opacity="0.03" stroke-width="2.85875"/>
<path d="M567.588 1081.33C543.845 1071.37 516.696 1063.65 489.257 1058.53C463.845 1053.79 436.845 1051.01 410.673 1050.37C384.972 1049.71 358.524 1051.06 333.722 1054.28C307.867 1057.64 282.269 1063.28 259.454 1070.9C234.177 1079.3 210.9 1090.57 192.861 1103.97C171.737 1119.6 157.059 1138.78 152.595 1159.58C147.103 1184.79 157.109 1212.21 185.461 1237.03C201.492 1251.18 223.005 1264.06 249.294 1274.81C277.366 1286.29 309.988 1295.01 345.492 1300.04" stroke="#04382E" stroke-opacity="0.03" stroke-width="2.85875"/>
<path d="M313.905 1237.44C271.44 1226.76 239.031 1209.67 220.589 1190.1C204.45 1173.06 199.637 1154.88 204.549 1137.91C208.733 1123.2 220.042 1109.69 236.24 1098.42C250.597 1088.38 269.197 1079.88 289.583 1073.52C308.491 1067.61 329.633 1063.34 351.255 1060.93C372.374 1058.56 394.647 1057.82 416.246 1058.81C460.977 1060.73 509.427 1071 543.578 1087.49" stroke="#04382E" stroke-opacity="0.03" stroke-width="2.85875"/>
<path d="M583.849 1095.41C564.616 1084.32 541.61 1075.17 517.243 1068.42C495.02 1062.25 470.829 1057.83 446.837 1055.35C423.831 1052.97 399.939 1052.26 376.951 1053.26C353.733 1054.27 330.361 1057 308.744 1061.38C285.711 1065.99 263.76 1072.74 244.558 1081.13C223.23 1090.46 204.409 1102.24 191.454 1115.78C176.215 1131.42 167.792 1149.83 169.272 1168.92C170.968 1191.55 186.659 1214.89 217.115 1235.02" stroke="#04382E" stroke-opacity="0.03" stroke-width="2.85875"/>
<path d="M209.814 1204.89C191.151 1186.96 183.995 1167.61 186.849 1149.37C189.369 1133.61 199.099 1118.78 214.08 1106.22C238.728 1085.2 280.546 1069.25 323.712 1061.76C343.75 1058.24 365.426 1056.17 386.749 1055.67C408.031 1055.16 430.01 1056.2 451.13 1058.77C473.29 1061.42 495.155 1065.88 515.23 1071.87C537.082 1078.39 557.659 1086.97 574.368 1097.3" stroke="#04382E" stroke-opacity="0.03" stroke-width="2.85875"/>
<path d="M551.285 1098.87C534.051 1087.52 511.511 1078.39 486.891 1072.14C464.283 1066.37 438.962 1062.79 414.373 1061.71C390.408 1060.63 365.132 1061.89 342.171 1065.28C318.288 1068.8 295.228 1074.93 276.108 1083.15C254.885 1092.23 237.628 1104.22 227.966 1117.82C216.653 1133.63 214.98 1152.08 226.225 1169.59C239.157 1190.16 269.025 1209.05 311.553 1220.96C357.976 1234.08 413.206 1237.26 464.473 1229.39" stroke="#04382E" stroke-opacity="0.03" stroke-width="2.85875"/>
<path d="M466.628 1503.3C397.629 1505.72 328.956 1497.62 265.878 1480.4C206.703 1464.22 155.929 1440.95 116.083 1412.81C80.3033 1387.76 54.5565 1359.86 38.3178 1331.23C24.1416 1306.14 17.5421 1280.96 17.5919 1256.67C17.4516 1235.47 22.667 1215.15 31.7408 1196.32C39.7336 1179.76 50.7479 1164.32 63.8836 1150.26C86.0796 1126.48 114.816 1106.2 146.896 1090.16C173.62 1076.61 203.587 1065.68 233.748 1057.48C260.897 1050.13 289.616 1044.58 318.38 1041.17C345.696 1037.89 373.963 1036.29 402.003 1036.4C430.305 1036.51 459.589 1038.42 487.996 1042.09" stroke="#04382E" stroke-opacity="0.03" stroke-width="2.85875"/>
<path d="M452.039 1078.17C479.658 1083.58 505.116 1094.03 519.523 1106.98C536.788 1122.07 539.968 1141.17 524.385 1157.72C506.853 1177.06 465.862 1191.12 417.512 1192.8C368.425 1194.76 321.287 1183.86 294.428 1165.93" stroke="#04382E" stroke-opacity="0.03" stroke-width="2.85875"/>
<path d="M418.253 1076.73C445.339 1078.75 472.312 1085.34 491.337 1095.24C512.818 1106.3 525.248 1122 521.227 1137.57C517.129 1155.65 491.663 1172.43 452.219 1179.93C411.188 1188.07 361.929 1184.6 327.203 1171.37" stroke="#04382E" stroke-opacity="0.03" stroke-width="2.85875"/>
<path d="M450.631 1084.99C474.718 1090.73 495.073 1101.18 504.015 1113.4C514.699 1127.47 510.452 1143.91 490.151 1156.52C467.738 1170.74 428.435 1178.28 388.412 1175.48C349.385 1172.9 316.736 1160.9 302.139 1145.3" stroke="#04382E" stroke-opacity="0.03" stroke-width="2.85875"/>
<path d="M428.454 1084.33C454.762 1088.03 478.862 1097.49 489.958 1109.52C503.293 1123.28 499.588 1140.37 477.455 1152.62C453.251 1166.48 410.388 1172.04 371.745 1165.86C335.02 1160.27 309.386 1145.25 305.374 1129.17" stroke="#04382E" stroke-opacity="0.03" stroke-width="2.85875"/>
<path d="M321.947 1136.42C333.075 1148.95 359.55 1158.65 390.698 1160.63C422.488 1162.8 454.192 1156.64 471.462 1145.24C487.533 1134.95 490.044 1121.47 479.889 1110.28C471.118 1100.26 452.337 1092.1 430.797 1088.3" stroke="#04382E" stroke-opacity="0.03" stroke-width="2.85875"/>
<path d="M330.066 1130.32C338.217 1142.43 363.095 1152.23 392.619 1153.88C422.703 1155.79 452.358 1149.05 465.842 1137.58C478.589 1127.28 476.608 1114.39 462.862 1104.82C450.834 1096.15 429 1090.2 407.075 1089.14" stroke="#04382E" stroke-opacity="0.03" stroke-width="2.85875"/>
<path d="M410.135 1100.79C422.457 1102.3 433.186 1106.5 437.786 1111.82C442.979 1117.51 441.061 1124.1 432.481 1129C423.913 1134.09 408.258 1136.66 393.679 1135.44C379.173 1134.34 366.53 1129.51 361.826 1123.6" stroke="#04382E" stroke-opacity="0.03" stroke-width="2.85875"/>
<path d="M338.228 1122.91C340.82 1132.43 355.421 1141.27 376.378 1145.3C397.918 1149.63 423.755 1148.01 441.292 1141.48C458.123 1135.37 465.863 1125.36 462.09 1116.17C458.856 1107.7 446.358 1100.12 429.83 1096.11" stroke="#04382E" stroke-opacity="0.03" stroke-width="2.85875"/>
<path d="M431.217 1101.16C443.344 1105.25 451.409 1112.02 451.753 1118.9C452.31 1126.27 443.905 1133.74 429.584 1137.86C414.752 1142.21 394.768 1142.81 378.453 1139.19C362.426 1135.74 351.399 1128.93 349.051 1121.49" stroke="#04382E" stroke-opacity="0.03" stroke-width="2.85875"/>
<path d="M370.7 1119.44C372.867 1124.71 383.32 1129.14 395.633 1130.02C401.585 1130.49 408.262 1130.06 413.771 1128.87C419.15 1127.71 423.614 1125.78 426.414 1123.39C429.16 1121.05 430.168 1118.42 429.413 1115.9C428.694 1113.38 426.197 1110.89 422.601 1109.02C415.477 1105.22 403.291 1103.36 392.693 1104.46" stroke="#04382E" stroke-opacity="0.03" stroke-width="2.85875"/>
<path d="M391.092 1070.3C423.823 1069.48 459.137 1074.29 486.602 1083.69C518.184 1094.35 541.896 1111.74 546.442 1131.07C552.408 1154.57 529.687 1179.36 481.844 1192.73C430.291 1207.69 361.673 1205.15 313.779 1186.87" stroke="#04382E" stroke-opacity="0.03" stroke-width="2.85875"/>
</g>
</g>
</g>
<defs>
<linearGradient id="paint0_linear_20_3837" x1="0" y1="0" x2="317.444" y2="4128.23" gradientUnits="userSpaceOnUse">
<stop stop-color="#DAF9E9"/>
<stop offset="0.29" stop-color="#B2EDDC"/>
<stop offset="0.405" stop-color="#B1EDDC"/>
<stop offset="0.49" stop-color="#AEECDB"/>
<stop offset="0.585" stop-color="#B1EDDC"/>
<stop offset="0.72" stop-color="#B3EEDD"/>
<stop offset="1" stop-color="#DAF9E9"/>
</linearGradient>
<clipPath id="clip0_20_3837">
<rect width="1920" height="4005" fill="white"/>
</clipPath>
<clipPath id="clip1_20_3837">
<rect width="1020" height="956" fill="white" transform="translate(-403 -427)"/>
</clipPath>
<clipPath id="clip2_20_3837">
<rect width="549" height="601.219" fill="white" transform="translate(1403)"/>
</clipPath>
<clipPath id="clip3_20_3837">
<rect width="847" height="848" fill="white" transform="translate(1237 1855)"/>
</clipPath>
<clipPath id="clip4_20_3837">
<rect width="731" height="814" fill="white" transform="translate(-28 2978)"/>
</clipPath>
<clipPath id="clip5_20_3837">
<rect width="768" height="764" fill="white" transform="translate(-65 857)"/>
</clipPath>
</defs>
</svg>
